<?xml version="1.0" encoding="UTF-8" standalone="no"?>
<!-- Created with Inkscape (http://www.inkscape.org/) by @Ahmed-Dghaies-->

<svg
   width="600"
   height="600"
   viewBox="0 0 158.75 158.75"
   version="1.1"
   id="svg1"
   xml:space="preserve"
   xmlns="http://www.w3.org/2000/svg"
   xmlns:svg="http://www.w3.org/2000/svg"><defs
     id="defs1"><clipPath
       clipPathUnits="userSpaceOnUse"
       id="clipPath1"><rect
         style="fill:none;stroke:#000000;stroke-width:0.195;stroke-linecap:round;stroke-linejoin:round"
         id="rect2"
         width="136.08316"
         height="149.02222"
         x="8.477313"
         y="3.12322" /></clipPath></defs><g
     id="layer1"><g
       id="g10"
       transform="matrix(0.95468341,0,0,0.95468341,9.2321611,23.147505)"><path
         style="display:inline;fill:#f6d6aa"
         d="m 43.347807,97.634509 c -0.802729,-0.344032 -0.837199,-0.458082 -1.576403,-2.881553 -0.680022,-2.229444 -0.202165,-2.635345 -0.912657,-2.045689 -0.561484,0.46599 0.07953,1.097237 0.784891,3.167042 0.571642,1.677411 0.332309,2.774575 -0.118379,2.774575 -0.606065,0 -3.017376,-2.141852 -3.872539,-4.430421 -0.816482,-2.185052 -0.345518,-2.584821 -0.959572,-2.075202 -0.436813,0.362523 0.310642,0.914139 0.759549,2.668359 0.169269,0.661458 -0.743486,1.436638 -1.522157,1.373757 -1.783054,-0.143989 -2.082392,-8.793667 -1.07839,-10.735193 0.387201,-0.748764 1.104613,-1.649435 1.712952,-1.501821 1.65472,0.401519 4.609172,0.129269 6.815384,-0.227119 1.682847,-0.271847 3.356396,0.07427 3.630078,0.281589 0.700063,0.530315 3.242935,6.07231 3.261949,7.192554 0.01601,0.943337 -0.920468,2.117309 -1.522359,2.187431 -0.849739,0.099 -2.010306,-0.85956 -2.642599,-2.563891 -0.501854,-1.352736 -0.0657,-1.540769 -0.537372,-0.843748 -0.377711,0.558173 0.16534,3.927719 0.726374,5.409176 0.275545,0.727604 0.74821,1.954442 0.748283,2.046619 2.23e-4,0.279937 -1.400248,1.187885 -1.966919,0.945022 z M 104.07001,43.953832 c -2.38501,-0.953998 -3.57056,-2.410841 -4.556937,-4.340109 -0.572266,-1.119302 -0.913969,-2.014603 -1.621963,-6.167385 -0.148856,-0.873125 -0.544776,-2.65529 -0.716232,-3.251477 -0.411719,-1.431629 0.88601,-2.003348 1.914156,-2.003348 1.163096,0 2.284586,0.719486 3.253246,2.146829 0.46761,0.689042 1.42466,2.017811 2.23585,2.898286 1.05276,1.142689 0.97879,0.872294 2.04865,3.264231 0.52224,1.1676 0.0819,0.83456 0.52658,0.897872 0.83947,0.11951 0.0491,-0.03494 -0.26222,-1.42049 -0.37735,-1.679442 -0.63126,-1.994625 -2.33433,-3.768191 -1.53216,-1.595588 -1.39831,-2.26482 0.24038,-4.985512 2.03195,-3.373602 3.53056,-4.611628 4.31369,-4.500451 0.86877,0.123332 1.50197,1.886417 0.31704,4.523989 -1.08438,2.41377 -0.9463,1.680134 -1.05417,2.617058 -0.0655,0.56927 0.53448,0.09428 1.45882,-1.913564 0.58618,-1.273307 1.34101,-2.925004 1.56835,-3.179665 0.62163,-0.696355 2.54716,-0.01815 2.7423,0.759344 0.22424,0.893443 0.0822,1.668461 -1.40849,4.288078 -1.424,2.502247 -2.07691,2.501855 -1.34638,2.892826 0.73794,0.39493 0.71145,0.01811 1.65363,-1.867694 0.97525,-1.951998 2.17159,-3.092882 2.87338,-3.092882 0.45834,0 1.39411,0.718857 1.27276,1.795517 -0.0986,0.874899 -0.44758,1.690739 -1.35991,3.025982 -0.99798,1.460598 -1.25377,1.724535 -1.03767,2.067137 0.53038,0.840812 0.16395,0.469543 1.22239,-0.930874 0.54929,-0.726764 2.05675,-1.941765 2.20479,-1.991112 1.01765,-0.339216 -0.57797,5.194879 -2.81662,8.433196 -3.0639,4.432094 -4.90768,6.37176 -8.43107,4.962412 z M 61.923867,42.783647 c -0.886683,-0.213253 -1.698981,-0.842011 -2.568736,-1.711766 -1.13416,-1.13416 -2.327885,-3.646331 -1.991655,-3.982561 0.06414,-0.06414 1.446353,0.07811 2.241586,0.357611 2.428354,0.853498 5.152598,1.023463 8.169907,0.848912 1.534105,-0.08875 3.872076,0.169224 4.199498,0.07527 0.953913,-0.273717 0.705039,1.457362 -0.530364,2.797615 -0.784316,0.850883 -1.807892,1.432042 -2.768815,1.717406 -1.671997,0.496529 -2.358928,0.953935 -4.069032,0.542643 z m 1.927464,-5.001886 c -3.09582,-0.442338 -6.422342,-1.766207 -9.126341,-3.602458 -2.310479,-1.569017 -5.512399,-4.621147 -6.898578,-7.150205 -1.807452,-3.297662 -0.843256,-3.079211 -1.875697,-2.645195 -0.484701,0.203757 -1.894334,0.285882 -2.551521,0.348496 -3.314279,0.315773 -6.871607,-5.059644 -5.531689,-8.568169 0.625365,-1.637496 0.728976,-3.564981 2.250915,-3.707546 1.052226,-0.09857 2.933034,-0.746949 3.790107,-0.161648 0.841551,0.574702 0.544779,1.183118 0.799851,0.89825 0.58152,-0.649448 3.106365,-5.8506851 3.663804,-7.8825706 0.304636,-1.1104051 0.632296,-3.1152773 0.728135,-4.37227212 0.174252,-2.28544518 1.057064,-2.96453098 2.663378,-2.99814268 2.90306,-0.060746 2.724396,-0.8700296 5.693708,-3.2598114 0.727746,-0.5857089 2.900821,-0.5178003 3.760575,0.3141623 2.339953,2.2643126 5.385133,2.7261991 8.817534,1.2078848 1.537464,-0.6800931 3.207307,-1.7056057 3.898976,-3.1344026 0.333676,-0.689283 2.376075,-1.9829457 2.635157,-1.9814818 0.788229,0.00445 4.280629,1.5595478 5.516727,2.8813004 2.540121,2.7161365 3.441913,5.94567958 4.371259,11.9968676 0.893961,5.8207951 0.826312,11.7115931 0.260922,14.9419631 -1.407773,8.043353 -6.65642,14.360439 -13.857287,16.169518 -2.341524,0.588263 -6.960458,0.998294 -9.009935,0.70546 z"
         id="path13" /><path
         style="display:inline;fill:#74a0c8"
         d="m 60.079256,83.128095 c -4.804263,-0.280536 -12.169219,-0.637046 -12.355688,-1.122976 -0.224347,-0.584638 0.318281,-10.789792 0.763505,-13.981916 0.22954,-1.645729 0.889915,-4.903614 1.391979,-7.390789 1.061025,-5.256207 0.947086,-4.337363 0.296648,-4.685467 -1.019757,-0.545757 -0.09176,-0.40614 -1.167509,4.876142 -1.332654,6.543762 -1.664044,10.446743 -1.864588,16.399525 -0.100938,2.996157 -0.643559,5.102206 -0.823431,5.24395 -0.398255,0.313837 -4.576765,1.19803 -6.417492,1.196232 -1.672101,-0.0016 -4.239918,-0.642078 -4.993009,-1.192751 -1.364496,-0.997744 0.96207,-18.305801 3.182469,-26.685839 0.79146,-2.987062 2.27706,-6.622664 3.867536,-8.851516 1.28475,-1.800416 4.326985,-4.351805 6.200865,-5.641068 1.811874,-1.246602 6.388758,-3.604007 7.355956,-3.651024 0.730754,-0.03552 1.388315,1.000839 1.615474,1.679021 0.472319,1.410101 1.53412,2.609121 2.93677,3.536069 4.09507,2.706248 9.078796,2.078806 11.916116,-1.363355 0.454942,-0.551923 1.08466,-1.23805 1.248332,-1.751291 0.163672,-0.513241 0.16969,-1.013096 0.87007,-1.339015 1.191124,-0.554285 5.86933,0.622196 8.624814,1.942325 1.455208,0.697179 3.738569,2.739566 5.37622,3.858949 1.63765,1.119384 3.132432,1.732555 3.548299,1.815729 1.114804,0.22296 1.398864,-0.08679 3.88719,-2.622839 1.218611,-1.241985 1.890658,-2.099761 2.893434,-2.506308 0.758242,-0.307408 1.54651,0.779808 2.306214,1.583079 1.44277,1.52552 4.56083,3.38122 5.7718,3.38122 0.33836,0 1.23448,0.786843 1.28465,0.96305 0.34346,1.206276 -0.72637,1.504336 -1.52612,2.694556 -3.1812,4.734414 -6.16338,7.786817 -9.324689,9.285975 -1.645327,0.780248 -2.480892,1.370897 -5.644982,1.353844 -4.772312,-0.02572 -5.045165,-0.464985 -5.773805,-4.876322 -0.710012,-4.298557 -0.331893,-3.925029 -1.004626,-3.925029 -1.051206,0 -0.312891,-0.395376 0.146225,2.376093 0.235833,1.423617 0.353489,4.244486 0.563541,6.268599 0.457693,4.410448 0.641494,20.324547 0.400997,21.28276 -0.186848,0.744464 -1.417573,0.923585 -6.370874,1.761045 -4.867556,0.822964 -12.807443,0.46159 -19.182291,0.08934 z M 41.823006,44.6905 c 0.341774,-0.363802 0.680939,-0.661459 0.753699,-0.661459 0.07276,0 -0.147342,0.297657 -0.489116,0.661459 -0.341774,0.363802 -0.680939,0.661458 -0.7537,0.661458 -0.07276,0 0.147342,-0.297656 0.489117,-0.661458 z"
         id="path12" /><path
         style="display:inline;fill:#87745b"
         d="m 50.157381,136.37943 c -1.832934,-0.39128 -3.285146,-1.09872 -4.000443,-1.9488 -0.643838,-0.76516 -0.682424,-0.95798 -0.563337,-2.81515 0.127598,-1.9899 0.959818,-4.70197 1.656671,-5.39882 0.305942,-0.30594 0.577141,-0.30623 1.750522,-0.002 2.033068,0.52737 5.144953,0.70428 7.109712,0.40419 1.606721,-0.24541 1.752763,-0.22491 2.221294,0.31171 1.004069,1.14999 2.122753,3.96392 2.226876,5.60147 0.118257,1.85983 -0.411472,2.77091 -2.025219,3.48316 -1.116205,0.49265 -6.647521,0.73309 -8.376076,0.3641 z m 28.839583,-1.9005 c -8.128296,-1.44209 -9.021842,-0.78741 -7.504188,-7.50874 0.260538,-1.06405 0.260538,-1.06405 4.279238,-1.08515 3.120038,-0.0164 4.446311,-0.1374 5.93092,-0.54119 1.912221,-0.52009 1.912221,-0.52009 3.439584,0.28672 2.074857,1.09601 4.614956,3.65091 5.225308,5.25574 0.572344,1.5049 0.329933,2.3225 -0.873041,2.94459 -1.703605,0.88096 -6.418354,1.37179 -10.497821,0.64803 z"
         id="path11" /><path
         style="display:inline;fill:#383a3a"
         d="m 50.645983,138.21162 c -2.22484,-0.39778 -4.356248,-1.3238 -5.497727,-2.38856 -1.057383,-0.98632 -1.071581,-1.02459 -1.168023,-3.14828 -0.108364,-2.38621 0.185612,-3.88266 1.215528,-6.18752 0.564694,-1.26373 0.634099,-1.63852 0.379047,-2.04693 -0.227975,-0.36504 -0.312219,-3.74044 -0.312219,-12.50967 0,-10.85947 -0.042,-12.044519 -0.438494,-12.372866 -0.308458,-0.255441 -1.096204,-0.346537 -2.656368,-0.307187 -2.171838,0.05478 -2.238252,0.0377 -3.199528,-0.822718 -0.539908,-0.483262 -1.416058,-0.958048 -1.946998,-1.05508 -2.026776,-0.370406 -3.190563,-2.020811 -3.690654,-5.233839 -0.373973,-2.402733 -0.132663,-5.618482 0.558013,-7.436193 0.434345,-1.143105 0.470349,-1.531479 0.225283,-2.430157 -0.552184,-2.024908 0.153249,-12.130161 1.386052,-19.855036 1.51653,-9.502747 3.352405,-13.947778 7.618275,-18.445405 2.729641,-2.877937 5.727282,-4.914304 9.493639,-6.449246 1.560481,-0.635959 2.837238,-1.260811 2.837238,-1.38856 0,-0.127749 -0.982472,-0.972586 -2.183272,-1.877416 -2.481905,-1.870172 -4.571556,-4.207029 -6.174075,-6.904467 -1.100461,-1.85235 -1.100461,-1.85235 -2.743362,-1.68403 -1.355846,0.138911 -1.870238,0.0679 -2.944013,-0.406394 -2.451985,-1.083068 -4.099133,-3.230088 -4.59109,-5.984382 -0.512334,-2.868375 0.554291,-5.817815 2.52427,-6.980131 1.077005,-0.635448 1.037247,-0.157696 0.375852,-4.5164296 -0.580675,-3.8267702 -0.09071,-8.8535436 1.166302,-11.9655874 1.999478,-4.9502099 6.244752,-9.267061 11.101924,-11.289107 6.154582,-2.562159 13.827304,-3.321024 19.274243,-1.906305 4.464937,1.159667 7.334502,2.703695 10.127931,5.44954 3.948163,3.8809104 5.682999,8.4373901 5.682999,14.9261784 0,1.5625973 0.19035,4.1417331 0.423001,5.7314128 0.568044,3.8813898 0.579801,10.7476518 0.02262,13.2090768 -1.485558,6.562633 -5.095378,11.668047 -10.029941,14.185473 -1.011357,0.515956 -1.271939,0.962252 -0.668282,1.144559 5.244557,1.583879 8.099666,2.94262 12.044103,5.731762 1.41577,1.001102 2.799746,1.821193 3.075504,1.822425 0.28207,0.0013 1.707438,-1.184005 3.258657,-2.709739 2.36139,-2.322594 2.73661,-2.806951 2.613321,-3.373438 -0.07918,-0.363802 -0.332907,-1.852083 -0.563846,-3.307291 -0.230939,-1.455209 -0.590757,-3.094728 -0.799595,-3.643375 -1.369829,-3.598737 1.49982,-5.954472 4.891672,-4.015646 0.64369,0.367939 1.31409,0.613818 1.48979,0.546397 0.17569,-0.06742 0.93276,-1.194334 1.68237,-2.504252 1.68786,-2.949498 2.8129,-4.009166 4.25646,-4.009166 0.77818,0 1.26746,0.199779 1.94395,0.79375 0.59957,0.526432 1.18772,0.79375 1.74639,0.79375 1.43758,0 2.63424,0.901633 2.65124,1.997604 0.011,0.709228 0.49947,1.177396 1.22844,1.177396 0.79914,0 1.95498,1.430304 1.95498,2.419204 0,0.436196 0.29674,1.180155 0.66146,1.658319 0.53508,0.701531 0.66146,1.169415 0.66146,2.448946 0,1.32828 -0.18446,1.960213 -1.15115,3.943776 -2.09495,4.298671 -5.39728,8.080283 -7.72788,8.849448 -0.71436,0.235761 -1.21352,0.775682 -2.39792,2.593711 -4.10488,6.300911 -8.1781,10.350457 -11.814527,11.745846 -2.046742,0.785387 -4.453204,1.017823 -7.308334,0.705898 -1.610582,-0.175958 -2.542468,-0.180824 -2.645833,-0.01382 -0.08776,0.141795 -0.08131,1.430206 0.01433,2.863136 0.09564,1.43293 0.263718,6.031357 0.373504,10.218727 0.195117,7.442004 0.187519,7.624665 -0.337513,8.113807 -0.592912,0.552381 -0.633928,1.757555 -1.027067,30.178001 -0.159208,11.50938 -0.159208,11.50938 1.122738,12.29524 1.738088,1.06548 3.969903,3.19939 4.764795,4.55577 0.927491,1.58264 1.084046,3.65107 0.363039,4.7965 -1.238578,1.96767 -5.091276,2.78806 -11.138682,2.37187 -5.394658,-0.37127 -9.811756,-1.77118 -10.823229,-3.4302 -0.665513,-1.09158 -0.707697,-3.19821 -0.116124,-5.79916 0.373481,-1.64207 0.376955,-1.94649 0.03079,-2.69806 -0.221388,-0.48067 -0.522105,-2.50689 -0.695107,-4.68362 -1.010185,-12.71028 -2.203213,-25.302918 -2.417678,-25.519068 -0.561677,-0.566087 -0.923505,0.605986 -1.610162,5.215811 -2.404417,16.141897 -3.932336,24.937707 -4.45464,25.644167 -0.294027,0.39769 -0.534594,0.80059 -0.534594,0.89533 0,0.0947 0.4142,1.02229 0.920446,2.06123 3.104983,6.3722 0.793809,10.15174 -6.344405,10.37522 -1.455208,0.0456 -3.259399,-0.0269 -4.009314,-0.16095 z m 7.887474,-2.19629 c 1.613747,-0.71225 2.143476,-1.62333 2.025219,-3.48316 -0.104123,-1.63755 -1.222807,-4.45148 -2.226876,-5.60147 -0.468531,-0.53662 -0.614573,-0.55712 -2.221294,-0.31171 -1.964759,0.30009 -5.076644,0.12318 -7.109712,-0.40419 -1.173381,-0.30437 -1.44458,-0.30408 -1.750522,0.002 -0.696853,0.69685 -1.529073,3.40892 -1.656671,5.39882 -0.119087,1.85717 -0.0805,2.04999 0.563337,2.81515 0.715297,0.85008 2.167509,1.55752 4.000443,1.9488 1.728555,0.36899 7.259871,0.12855 8.376076,-0.3641 z m 28.502461,-1.51225 c 3.278615,-0.53198 4.146725,-1.47431 3.331908,-3.61677 -0.610352,-1.60483 -3.150451,-4.15973 -5.225308,-5.25574 -1.527363,-0.80681 -1.527363,-0.80681 -3.439584,-0.28672 -1.484609,0.40379 -2.810882,0.52481 -5.93092,0.54119 -4.0187,0.0211 -4.0187,0.0211 -4.279238,1.08515 -0.414473,1.69274 -0.63511,4.00013 -0.440985,4.61176 0.651841,2.05377 10.376641,3.831 15.984127,2.92113 z M 41.430002,97.733195 c 0.09207,-0.148967 -0.0688,-1.01217 -0.357476,-1.918229 -0.734969,-2.306808 -0.875212,-3.535267 -0.444407,-3.892803 0.449819,-0.373316 0.504701,-0.275986 1.345903,2.386889 0.791301,2.504914 1.740377,3.697424 2.937485,3.69094 1.580694,-0.0086 1.623532,-0.189439 0.779821,-3.292683 -0.521789,-1.919188 -0.592938,-5.79793 -0.10336,-5.634737 0.178959,0.05965 0.567288,0.742362 0.862954,1.517132 0.619432,1.623175 1.629177,2.536378 2.499194,2.260245 1.414848,-0.449055 1.077256,-2.447084 -1.118506,-6.619865 -1.276855,-2.426509 -0.451265,-2.18922 -6.405479,-1.841049 -1.91381,0.111909 -3.55282,0.08074 -4.126146,-0.07847 -1.251199,-0.347444 -1.678964,-0.07221 -2.265433,1.457641 -0.638368,1.665232 -0.636647,5.723225 0.0032,7.633769 0.466666,1.393355 1.521551,2.662845 1.978188,2.380627 0.159412,-0.09852 0.05225,-0.766381 -0.278305,-1.734478 -0.947895,-2.776089 -0.02385,-3.331313 1.002134,-0.602142 0.750263,1.995748 1.865187,3.942176 2.4555,4.286802 0.574077,0.335146 1.027725,0.335296 1.234697,4.08e-4 z M 75.292797,82.886758 c 3.013505,-0.282207 7.795404,-1.097759 9.3673,-1.597592 0.900633,-0.286384 0.900633,-0.286384 0.734721,-7.991483 -0.183792,-8.53548 -0.424795,-11.979698 -1.285711,-18.374341 -0.482354,-3.582786 -0.520715,-4.356812 -0.224983,-4.539584 0.497778,-0.307643 1.014058,-0.05591 1.220715,0.595212 0.09619,0.303073 0.436161,2.167309 0.755485,4.142745 0.580591,3.591702 0.580591,3.591702 1.621116,3.95142 0.581994,0.201201 2.264765,0.376093 3.818649,0.396875 2.32169,0.03105 3.042907,-0.06337 4.389737,-0.574696 3.201821,-1.215579 6.951604,-4.745501 10.244834,-9.644165 0.82776,-1.23128 1.50501,-2.360928 1.50501,-2.510329 0,-0.1494 -0.44648,-0.352405 -0.99219,-0.451121 -1.90033,-0.343765 -4.7098,-1.955935 -6.28328,-3.605562 -0.821288,-0.861032 -1.560127,-1.565512 -1.641868,-1.565512 -0.08174,0 -0.851053,0.766582 -1.709583,1.703516 -2.012376,2.196154 -3.909105,3.58815 -4.889199,3.58815 -0.517091,0 -1.964325,-0.795283 -4.517279,-2.482334 -4.019661,-2.656284 -6.990436,-4.055058 -10.771317,-5.071617 -2.560013,-0.688306 -2.894528,-0.6229 -3.143192,0.614572 -0.212921,1.059597 -1.224115,2.432537 -2.519042,3.420211 -2.563766,1.95545 -6.964248,2.237206 -10.18411,0.652072 -1.976822,-0.973186 -3.156943,-2.192184 -4.085214,-4.219795 -0.751839,-1.642233 -0.690618,-1.638053 -3.977022,-0.271496 -2.79557,1.162459 -5.723613,3.167104 -7.994873,5.473583 -4.444136,4.513047 -6.153134,8.534357 -7.783979,18.315883 -0.87747,5.262912 -1.474516,11.641129 -1.474516,15.752194 0,3.169214 0.01786,3.270399 0.650407,3.68486 1.210869,0.793392 3.946084,1.011601 7.108116,0.56707 1.575052,-0.221427 2.903936,-0.443447 2.953074,-0.493377 0.04914,-0.04993 0.220699,-2.650627 0.381245,-5.779325 0.326652,-6.365754 0.911673,-10.937957 2.149722,-16.801042 0.89933,-4.258997 1.120479,-4.894792 1.702556,-4.894792 0.84762,0 0.826441,0.863713 -0.138221,5.636809 -1.281838,6.342463 -1.852918,10.967137 -2.034907,16.478911 -0.133423,4.040885 -0.102965,4.538698 0.286847,4.688282 0.239865,0.09205 2.25155,0.422778 4.470411,0.734961 6.861426,0.96537 15.142009,1.140278 22.290541,0.470837 z M 110.53255,44.412562 c 2.32021,-0.943481 6.19182,-6.117419 7.63195,-10.199183 0.75661,-2.144466 -0.33998,-2.822506 -1.5267,-0.943986 -0.89162,1.41139 -1.66617,2.136031 -2.03771,1.90641 -0.50312,-0.310947 -0.30045,-0.95021 0.77933,-2.458094 1.60452,-2.240698 1.97487,-4.256013 0.86067,-4.68357 -0.71948,-0.276092 -1.71834,0.693875 -2.84729,2.764931 -1.14251,2.09592 -1.76953,2.702732 -2.27277,2.199494 -0.22756,-0.227556 0.0351,-0.888696 1.05528,-2.656376 0.74703,-1.29438 1.46939,-2.740993 1.60525,-3.214697 0.49657,-1.731434 -0.66844,-2.896755 -2.01434,-2.014887 -0.41472,0.271737 -1.11991,1.401432 -1.83046,2.932358 -0.72319,1.558158 -1.30764,2.490329 -1.56138,2.490329 -0.6877,0 -0.46792,-1.164143 0.70188,-3.717754 1.14253,-2.494079 1.15928,-2.891052 0.14889,-3.528387 -0.30135,-0.190085 -0.61831,-0.168256 -1.07045,0.07372 -0.63411,0.339363 -2.57133,3.102946 -4.03779,5.760188 -0.7538,1.365895 -0.7538,1.365895 1.0113,3.236989 1.38969,1.473142 1.85541,2.181755 2.18972,3.331755 0.47248,1.62525 0.43287,2.384111 -0.12442,2.384111 -0.21731,0 -0.58441,-0.639643 -0.88551,-1.542933 -0.36975,-1.109264 -0.93922,-2.001657 -2.02609,-3.175001 -0.83148,-0.897636 -1.90037,-2.204539 -2.37531,-2.904229 -2.031664,-2.99307 -5.300583,-2.481571 -4.168569,0.65227 0.228286,0.631983 0.602019,2.389841 0.830519,3.906352 0.504986,3.35151 1.405048,5.477163 2.90438,6.859198 2.96751,2.735354 6.28998,3.667222 9.05962,2.540989 z M 68.665934,42.596015 c 1.631657,-0.68175 3.986686,-3.279721 3.454996,-3.811411 -0.0925,-0.0925 -2.39323,-0.171016 -5.112739,-0.174486 -4.724908,-0.006 -5.037179,-0.03903 -7.029496,-0.742959 -1.146714,-0.405157 -2.14031,-0.681275 -2.20799,-0.613595 -0.270761,0.270761 0.270883,1.778054 1.001255,2.786303 1.575344,2.174699 4.278216,3.292672 7.36119,3.044766 0.928548,-0.07467 2.0683,-0.294544 2.532784,-0.488618 z m 4.248958,-6.01863 c 3.106644,-0.93 5.505025,-2.373813 7.80187,-4.696685 4.632773,-4.68527 6.45302,-10.644504 5.847674,-19.144469 C 86.240874,8.1929325 85.191579,1.8318297 84.429884,-0.20398118 83.676625,-2.2172481 82.122319,-4.5478338 80.607928,-5.9347693 c -1.290095,-1.181517 -3.92755,-2.5766465 -4.362682,-2.3077199 -0.134863,0.08335 -0.502981,0.6840386 -0.81804,1.3348639 -0.739457,1.5275139 -2.845744,3.4135954 -4.40575,3.945143 -3.637565,1.2394428 -8.182312,0.5512212 -10.128425,-1.533771 -0.807178,-0.8647801 -1.336801,-0.8664945 -2.263856,-0.00733 -1.968368,1.8242218 -4.965568,2.9404142 -7.214835,2.6868892 -1.534216,-0.1729284 -1.820875,0.3123538 -1.996647,3.3801074 -0.07666,1.3380015 -0.389274,3.1812072 -0.713546,4.2071795 -0.713438,2.2572694 -3.351547,8.2298992 -3.632386,8.2236572 -0.113326,-0.0025 -0.731631,-0.282812 -1.374012,-0.622874 -1.957084,-1.036038 -3.974939,-0.288712 -5.082532,1.88235 -0.443523,0.869376 -0.531384,1.446191 -0.453928,2.980048 0.11974,2.371208 1.079313,4.103936 2.894077,5.225919 1.6919,1.046021 2.798173,1.171977 4.227628,0.48134 1.351721,-0.653081 1.101637,-0.86093 2.890012,2.401926 1.383841,2.524794 4.383467,5.852208 6.684155,7.414575 2.067114,1.403751 4.400097,2.473906 6.815049,3.126108 2.799687,0.756107 8.183813,0.60944 11.242682,-0.306259 z m -7.712057,-7.638127 c -1.906522,-0.587097 -4.889645,-3.268469 -4.442037,-3.992713 0.299767,-0.485034 1.004619,-0.19242 2.264019,0.939889 2.60121,2.338712 5.582401,2.600044 8.94453,0.784081 1.355514,-0.732144 1.944083,-0.927717 2.155544,-0.716256 0.504357,0.504358 -0.15772,1.263131 -1.92637,2.207716 -1.462843,0.781261 -1.945101,0.899677 -3.917182,0.961842 -1.236927,0.03899 -2.622254,-0.04406 -3.078504,-0.184559 z m 5.676744,-7.535588 c -0.08848,-0.08848 0.124162,-0.445895 0.47253,-0.794263 0.780464,-0.780465 0.798931,-1.285665 0.07351,-2.011084 -0.442369,-0.442369 -0.775571,-0.530954 -1.5875,-0.422052 -0.860961,0.115479 -1.027615,0.06135 -1.027615,-0.333761 0,-0.807618 0.694546,-1.145554 2.042215,-0.993652 1.413807,0.159356 2.078082,0.776298 2.340186,2.173432 0.242268,1.291399 -0.346467,2.364929 -1.351042,2.463561 -0.440781,0.04328 -0.873809,0.0063 -0.962286,-0.08218 z M 59.670354,15.333775 c -1.353571,-1.353571 -0.607047,-4.377651 1.080667,-4.377651 1.086897,0 1.709485,0.871621 1.709485,2.393276 0,1.064569 -0.131534,1.466477 -0.649432,1.984375 -0.357188,0.357188 -0.83885,0.649432 -1.07036,0.649432 -0.231511,0 -0.713172,-0.292244 -1.07036,-0.649432 z M 75.471209,14.577092 C 74.63721,13.68934 74.658,11.536464 75.508287,10.737661 c 0.770265,-0.723626 1.600552,-0.733846 2.258337,-0.0278 0.97951,1.05138 0.960455,2.775586 -0.04293,3.884279 -0.69116,0.763702 -1.524937,0.75739 -2.252488,-0.01705 z M 55.845922,6.1482693 c 0,-0.8661002 2.074195,-2.7103214 3.496027,-3.1084098 1.508577,-0.4223755 2.170203,-0.3036722 2.272237,0.4076656 0.06485,0.4520903 -0.09307,0.5838276 -0.846378,0.7060731 -1.394799,0.2263449 -2.751579,0.9569654 -3.357613,1.8080614 -0.655061,0.919948 -1.564273,1.0284123 -1.564273,0.1866097 z M 78.238687,3.7820431 c -0.745668,-0.3958124 -1.390979,-0.5190475 -2.38125,-0.4547475 -1.232698,0.080041 -1.3661,0.033984 -1.441712,-0.497758 -0.104322,-0.7336371 0.714104,-0.9812011 2.699475,-0.8165587 1.571551,0.1303253 3.153217,1.0519993 3.017214,1.7582025 -0.12051,0.6257579 -0.728756,0.6292466 -1.893727,0.010862 z"
         id="path10" /></g></g></svg>
