<?xml version="1.0" encoding="UTF-8" standalone="no"?>
<!-- Created with Inkscape (http://www.inkscape.org/) -->

<svg
   width="800"
   height="600"
   viewBox="0 0 211.66666 158.75"
   version="1.1"
   id="svg1"
   xml:space="preserve"
   xmlns="http://www.w3.org/2000/svg"
   xmlns:svg="http://www.w3.org/2000/svg"><defs
     id="defs1" /><g
     id="layer1"><path
       style="fill:#000000;stroke-width:0.898271"
       d="m 58.742413,128.34149 c -0.974507,-0.29533 -1.876147,-0.9758 -2.249451,-1.69769 -0.588026,-1.13712 -0.462538,-1.36888 0.784568,-1.4489 0.970969,-0.0623 1.217086,0.019 1.759031,0.58114 0.538541,0.55861 0.821541,0.65359 1.947506,0.65359 1.852981,0 2.507219,-0.5911 2.696332,-2.4361 0.142825,-1.39339 -0.06333,-1.72541 -0.568776,-0.91605 -0.154754,0.24779 -0.764222,0.63493 -1.354378,0.86032 -2.073093,0.79172 -4.24973,-0.0322 -5.370962,-2.03305 -0.504972,-0.90112 -0.593748,-1.36361 -0.591323,-3.08048 0.0036,-2.40318 0.554216,-3.69935 1.962606,-4.61827 1.790049,-1.16796 4.246156,-0.99033 5.4086,0.39115 l 0.587811,0.69857 v -0.85007 -0.85007 h 1.188341 1.188332 v 5.55531 c 0,7.03317 -0.252477,7.94075 -2.495506,8.97076 -1.00097,0.45964 -3.701093,0.58097 -4.892731,0.21984 z m 3.800505,-6.8014 c 1.252981,-1.05432 1.506249,-3.2844 0.555806,-4.89399 -0.955231,-1.6177 -3.556212,-1.46047 -4.450575,0.26905 -0.522992,1.01135 -0.463374,3.04469 0.117197,3.99692 0.831386,1.36361 2.561529,1.65125 3.777572,0.62802 z m -16.750873,2.77546 c -1.255317,-0.57014 -1.870309,-1.7735 -1.696134,-3.31879 0.211974,-1.88056 1.887923,-2.85721 5.576261,-3.24951 1.365957,-0.14529 1.485418,-0.20391 1.485418,-0.72883 0,-0.96302 -0.789311,-1.5215 -2.150354,-1.5215 -0.974382,0 -1.303104,0.11158 -1.750345,0.59417 -0.434772,0.46912 -0.782502,0.59417 -1.652325,0.59417 -1.277692,0 -1.370591,-0.23897 -0.563782,-1.45028 0.78376,-1.1767 2.094347,-1.73588 4.09663,-1.74787 2.076875,-0.0125 3.378569,0.56707 3.980563,1.77214 0.348727,0.69806 0.415612,1.51028 0.415918,5.05044 l 3.77e-4,4.21859 h -1.188341 c -1.177436,0 -1.188341,-0.007 -1.188341,-0.75746 v -0.75747 l -0.653582,0.62352 c -1.26041,1.20241 -3.005437,1.45375 -4.711963,0.67868 z m 4.137644,-2.32459 c 0.557287,-0.35336 1.227901,-1.6337 1.227901,-2.34432 0,-0.32476 -0.202453,-0.35685 -1.366585,-0.2166 -2.529056,0.30467 -3.727072,1.16628 -3.14192,2.25964 0.512006,0.9567 2.027443,1.09588 3.280604,0.30128 z m 20.930198,2.11325 c -1.025458,-0.53571 -1.39277,-0.90302 -1.928481,-1.92848 -1.210448,-2.31707 -0.786993,-5.64256 0.949922,-7.45995 1.22235,-1.27898 4.031567,-1.64834 5.756033,-0.75682 1.488822,0.76971 2.614338,2.86788 2.614338,4.87361 v 0.94237 h -3.833777 -3.833778 l 0.141676,0.89125 c 0.334965,2.10716 2.863806,2.93846 4.518727,1.48542 0.621091,-0.54533 1.042219,-0.713 1.790775,-0.713 0.80725,0 0.978712,0.08 0.978712,0.4571 0,0.2514 -0.289693,0.80137 -0.643755,1.22215 -1.462844,1.7385 -4.25954,2.1622 -6.510392,0.98635 z m 5.015138,-6.35709 c 0,-0.58467 -0.810168,-1.8129 -1.395482,-2.11559 -0.896466,-0.46358 -1.527825,-0.47052 -2.386958,-0.0262 -0.555806,0.28742 -1.446244,1.59636 -1.446244,2.12598 0,0.0782 1.176448,0.14233 2.614338,0.14233 1.437889,0 2.614346,-0.057 2.614346,-0.12647 z m 23.875765,6.5721 c -3.137231,-1.42505 -3.948073,-6.38102 -1.49917,-9.16311 2.33594,-2.65377 6.75215,-2.18173 8.32033,0.88933 0.61663,1.20757 0.83705,3.68338 0.45399,5.09921 -0.34354,1.26974 -1.50555,2.61381 -2.7476,3.17806 -1.23942,0.56306 -3.28377,0.56148 -4.52755,-0.004 z m 3.31171,-1.81495 c 1.12168,-0.53227 1.66008,-1.61062 1.65602,-3.31678 -0.004,-1.69683 -0.50937,-2.81574 -1.50394,-3.33005 -0.96398,-0.49849 -1.72987,-0.45109 -2.50003,0.15472 -2.067107,1.62598 -1.589577,6.12136 0.70975,6.68151 0.78708,0.19176 0.8504,0.18443 1.6382,-0.1894 z m 28.30587,1.81844 c -1.24204,-0.56425 -2.40406,-1.90832 -2.7476,-3.17806 -0.40717,-1.50491 -0.16235,-3.9623 0.5174,-5.19361 1.32446,-2.39912 4.47531,-3.22141 7.13825,-1.86287 2.88988,1.4743 3.48576,6.62222 1.05825,9.1424 -1.48167,1.53822 -3.97835,1.99525 -5.9663,1.09214 z m 3.65811,-2.08333 c 1.7371,-1.21671 1.5845,-5.45804 -0.23014,-6.39643 -0.85364,-0.44144 -1.49009,-0.43754 -2.3642,0.0145 -1.94363,1.0051 -2.09803,5.03389 -0.24776,6.46486 0.54026,0.41783 2.19616,0.36952 2.8421,-0.0829 z m 7.8877,2.11029 c -1.79423,-0.91491 -2.14231,-2.06904 -2.15023,-7.12966 l -0.005,-3.62443 h 1.18834 1.18834 l 9e-4,3.26792 c 7.4e-4,1.79736 0.11184,3.66585 0.24691,4.15218 0.47458,1.70879 2.22575,2.15425 3.61012,0.91833 l 0.77617,-0.69293 0.0758,-3.82275 0.0758,-3.82275 h 1.17199 1.17198 v 5.46635 5.46635 h -1.18834 c -1.18017,0 -1.18834,-0.005 -1.18834,-0.76588 0,-0.74051 -0.0115,-0.74941 -0.34827,-0.26865 -0.83937,1.19837 -3.12492,1.62126 -4.62585,0.85592 z m 24.34404,0.0794 c -1.77368,-0.7917 -2.73318,-2.71312 -2.73318,-5.47326 0,-3.79776 2.54592,-6.21065 5.66645,-5.37038 0.53164,0.14316 1.26561,0.51183 1.63102,0.81926 l 0.6644,0.55898 v -2.64482 -2.64481 l 1.24775,-0.0719 1.24775,-0.0719 v 7.49895 7.49895 h -1.18833 c -1.1807,0 -1.18839,-0.005 -1.1959,-0.77241 -0.006,-0.66355 -0.049,-0.71804 -0.30128,-0.38659 -0.96645,1.2695 -3.41506,1.78453 -5.03868,1.05981 z m 3.52406,-1.88856 c 1.00064,-0.4181 1.57753,-1.31744 1.74271,-2.71684 0.28545,-2.41818 -0.92171,-4.32678 -2.73662,-4.32678 -1.71549,0 -2.64899,1.29966 -2.64899,3.68802 0,2.16916 0.89417,3.38703 2.68139,3.65211 0.10225,0.0152 0.53493,-0.11827 0.96151,-0.29651 z M 32.144186,117.16059 v -7.36769 h 3.359185 c 1.964995,0 3.762831,0.12093 4.331733,0.29138 3.318906,0.99437 4.273095,5.58218 1.696826,8.15845 -1.153893,1.15389 -2.418407,1.53221 -5.121431,1.53221 h -1.651975 v 2.37667 2.37667 h -1.307173 -1.307165 z m 6.484073,0.15164 c 1.586365,-0.67144 2.184245,-2.22934 1.426338,-3.71665 -0.587901,-1.15371 -1.71798,-1.66285 -3.691814,-1.66331 l -1.604259,-3.7e-4 v 2.85202 2.85201 h 1.552473 c 0.853861,0 1.896628,-0.14567 2.317262,-0.3237 z m 46.515804,1.7497 v -5.46635 h 1.188341 1.188332 v 0.85696 0.85698 l 0.6702,-0.71745 c 1.204277,-1.28918 3.820644,-1.52646 5.165644,-0.46848 1.233389,0.97018 1.394827,1.6405 1.489846,6.1861 l 0.08821,4.21859 h -1.330259 -1.330259 v -3.67266 c 0,-2.18542 -0.106858,-3.90718 -0.263876,-4.25181 -0.456196,-1.00125 -1.761259,-1.36516 -2.951279,-0.82296 -1.153713,0.52567 -1.403451,1.40034 -1.4967,5.24184 l -0.08507,3.50559 h -1.16654 -1.16654 z m 26.499937,5.24168 c -0.26143,-0.10701 -0.68923,-0.43197 -0.95067,-0.72216 -0.42376,-0.47035 -0.4836,-0.92463 -0.55148,-4.18723 l -0.0762,-3.65964 h -0.81511 c -0.80761,0 -0.81511,-0.01 -0.81511,-1.0695 0,-1.06385 0.005,-1.0695 0.83184,-1.0695 h 0.83184 v -1.30718 -1.30716 h 1.18833 1.18834 v 1.30716 1.30718 h 1.18834 1.18833 v 1.0695 1.0695 h -1.18833 -1.18834 v 2.95387 c 0,3.32939 0.15675,3.70083 1.56181,3.70083 0.80732,0 0.81486,0.01 0.81486,1.0695 v 1.0695 l -1.36658,-0.0151 c -0.75163,-0.008 -1.58049,-0.10261 -1.84192,-0.20961 z m 10.81387,-4.31798 v -4.54266 l -0.713,0.10465 c -0.69849,0.10251 -0.713,0.0837 -0.713,-0.9237 0,-0.97404 0.036,-1.02834 0.68277,-1.02834 0.64698,0 0.68883,-0.0632 0.79864,-1.20604 0.20237,-2.10606 1.29635,-3.06254 3.50961,-3.06848 l 1.30717,-0.004 v 0.95067 c 0,0.9344 -0.0147,0.95067 -0.86215,0.95067 -1.0116,0 -1.29364,0.27568 -1.51971,1.48542 l -0.16655,0.89126 h 1.21478 1.21479 v 0.95067 0.95067 h -1.0695 -1.06951 v 4.51568 4.51568 h -1.30716 -1.30718 z m 30.37057,-0.92389 -0.0679,-5.46656 1.27473,2e-4 1.27473,2e-4 -0.10465,0.713 c -0.12608,0.85906 0.0362,0.89324 0.73075,0.15392 1.18166,-1.25783 3.69091,-1.35797 5.06454,-0.20215 1.22853,1.03374 1.38544,1.73819 1.38544,6.21995 v 4.04798 h -1.17234 -1.17235 l -0.0754,-3.94264 -0.0754,-3.94263 -0.66685,-0.57305 c -0.94049,-0.8082 -2.08302,-0.76363 -3.07267,0.11989 l -0.77617,0.69294 -0.0758,3.82275 -0.0758,3.82274 h -1.16346 -1.16346 z M 77.835035,96.934319 c -9.446868,-1.09887 -15.576797,-7.56476 -17.902403,-18.88355 -0.626733,-3.05032 -0.889406,-11.10455 -0.473776,-14.5272 0.513488,-4.22855 1.939036,-8.74749 3.715888,-11.77921 3.943034,-6.727772 9.591409,-9.924405 17.536188,-9.924405 6.257151,0 10.67873,1.678303 14.415171,5.471568 5.641457,5.727267 8.246587,15.478387 7.119277,26.647797 -1.61799,16.03122 -10.703012,24.58947 -24.410345,22.995 z m 6.546216,-10.07539 c 4.849183,-2.21291 7.280749,-8.93439 6.873374,-18.99977 -0.44662,-11.03488 -4.496782,-17.015688 -11.145436,-16.458283 -4.681161,0.392443 -7.844047,4.334333 -9.163598,11.420503 -0.614265,3.29872 -0.552644,11.36146 0.110146,14.41105 0.647743,2.98034 1.327618,4.71931 2.540437,6.49788 2.432887,3.56774 6.950859,4.87836 10.785077,3.12862 z m -49.62261,3.97997 -1.17e-4,-5.05044 H 22.518643 10.278762 v -4.72442 -4.72443 l 10.6352,-17.02216 10.635209,-17.022166 h 7.07103 7.07104 v 16.993246 16.99323 h 3.208508 3.208517 v 4.75336 4.75334 h -3.208517 -3.208508 l 8.9e-5,5.05044 9e-5,5.05044 h -5.466331 -5.466332 z m -1.17e-4,-25.60868 c 0,-6.07835 -0.0433,-11.05155 -0.09625,-11.05155 -0.05291,0 -0.392841,0.50802 -0.755347,1.12892 -0.715249,1.22511 -8.301033,13.35196 -11.298888,18.06274 l -1.852784,2.91143 h 7.001639 7.00163 z m 97.631146,25.5495 0.0686,-4.99126 h -12.24903 -12.24905 v -4.71985 -4.71986 l 9.21508,-14.4718 c 5.06829,-7.95949 9.9078,-15.619139 10.75446,-17.021431 l 1.53938,-2.549626 6.83294,-0.0054 6.83294,-0.0054 v 16.993237 16.99324 h 3.30978 3.30979 l 0.0251,4.75336 0.0251,4.75334 h -3.33487 -3.33487 v 4.99102 4.99102 l -5.40694,2.4e-4 -5.40694,2.2e-4 z m 0.0502,-25.60239 c 0,-9.49041 -0.0475,-11.03629 -0.32678,-10.63562 -0.17972,0.25784 -2.80916,4.42597 -5.84321,9.26251 -3.03403,4.83653 -5.86327,9.32844 -6.28719,9.98204 -0.42391,0.65358 -0.9618,1.48244 -1.19532,1.84192 l -0.42456,0.65358 h 7.03853 7.03853 z m 47.59719,30.12847 c -1.54399,-0.5557 -2.37825,-1.14197 -3.59991,-2.52985 -1.13843,-1.29334 -1.68091,-2.80251 -2.03633,-5.66512 l -0.2637,-2.12383 -0.89653,1.22132 c -2.22712,3.03394 -4.61222,4.38007 -7.77879,4.39026 -2.75452,0.009 -4.75209,-1.07484 -6.20544,-3.36655 -0.62748,-0.98943 -0.8683,-2.11978 -0.52479,-2.46328 0.0816,-0.0816 0.553,0.0582 1.04769,0.3106 1.4445,0.73693 2.62534,0.82857 3.82251,0.29664 2.17367,-0.96582 3.53756,-2.72143 3.53756,-4.5536 0,-1.3862 -0.24154,-1.83658 -2.18034,-4.06529 -3.43606,-3.94986 -4.77872,-6.10529 -5.9219,-9.50671 -1.04522,-3.10992 -1.23462,-6.99298 -0.48723,-9.98939 1.71641,-6.881427 6.97009,-12.358591 13.71278,-14.29609 2.68462,-0.771418 8.34406,-0.768669 11.15693,0.0054 8.58841,2.363505 14.37889,9.89592 14.37889,18.70444 0,5.86831 -1.92799,10.59958 -6.19435,15.20085 -1.5383,1.65905 -1.64868,1.8506 -1.64868,2.86077 0,0.83905 0.13421,1.21686 0.59644,1.6791 0.68715,0.68714 1.98776,1.28329 2.79977,1.28329 1.00162,0 2.71201,-0.72224 4.2487,-1.79409 l 1.50529,-1.04993 0.0714,0.66801 c 0.14005,1.31 -0.88088,3.38358 -2.4273,4.92999 -1.98671,1.98671 -3.46369,2.55712 -6.67548,2.57805 -2.12405,0.0138 -2.52826,-0.0553 -3.80269,-0.65052 -0.7843,-0.36629 -1.81741,-1.04701 -2.2958,-1.5127 -0.47839,-0.46569 -0.98641,-0.77464 -1.12892,-0.68656 -0.39179,0.24214 -0.31325,3.42859 0.12051,4.88922 0.49039,1.65132 1.48988,2.63779 3.36554,3.32169 0.81593,0.2975 1.48351,0.62936 1.48351,0.73747 0,0.38547 -0.97849,1.09886 -1.87603,1.36776 -1.41842,0.42496 -4.4653,0.32619 -5.90333,-0.19138 z m -7.84962,-25.84922 c 0.79776,-0.72198 1.13126,-1.65136 1.13126,-3.15269 0,-1.82196 -0.46582,-2.95018 -1.47112,-3.56309 -1.16103,-0.70786 -2.00278,-0.62008 -2.9282,0.30535 -1.90351,1.90351 -1.52255,6.01261 0.64181,6.92266 0.85465,0.35935 1.88528,0.15833 2.62625,-0.51223 z m 15.38719,-0.0265 c 1.54898,-1.54898 1.57127,-4.83745 0.0428,-6.30189 -1.37569,-1.31799 -3.46996,-0.86491 -4.2121,0.91125 -0.44569,1.0667 -0.44036,3.52007 0.01,4.3901 0.9057,1.75143 2.92356,2.23678 4.1598,1.00054 z"
       id="path1" /></g></svg>
