<?xml version="1.0" encoding="UTF-8" standalone="no"?>
<!-- Created with Inkscape (http://www.inkscape.org/) -->

<svg
   width="600"
   height="800"
   viewBox="0 0 158.75 211.66667"
   version="1.1"
   id="svg1"
   xml:space="preserve"
   xmlns="http://www.w3.org/2000/svg"
   xmlns:svg="http://www.w3.org/2000/svg"><defs
     id="defs1" /><g
     id="layer1"><g
       id="g39"
       transform="translate(-1.146895e-8,4.8724126)"><path
         style="display:inline;fill:#f3d4a8"
         d="m 48.921745,147.1439 c -1.374344,-0.88054 -3.828356,-4.39471 -4.170357,-6.94178 -0.322709,-2.40339 0.558667,-1.55591 -0.480161,-1.55591 -1.527029,0 -0.304641,1.06705 0.341249,4.44241 0.17632,0.92143 -0.317865,1.90101 -1.069795,1.47423 -0.745574,-0.42318 -1.452799,-1.05561 -1.704893,-1.27953 -1.623145,-1.44194 -2.256038,-8.11498 -1.350953,-11.14242 0.688199,-2.30197 1.486218,-2.95532 2.965277,-2.84796 0.722784,0.0525 3.703222,-0.10614 6.388798,-0.0595 4.882865,0.0849 6.033552,0.75613 6.410976,1.36731 0.207584,0.33617 1.400451,1.70986 1.947619,2.11505 1.407452,1.04224 0.942432,4.48366 0.424664,7.83259 -0.517745,3.34879 -2.965856,2.21456 -3.977752,-2.62286 -0.134576,-0.64335 0.295057,-0.0966 -0.544306,0.35264 -0.927884,0.49659 0.751546,2.71525 2.043867,4.64012 1.168069,1.7398 -1.398928,4.08718 -2.946459,3.85511 -1.762612,-0.26432 -3.664335,-3.34055 -4.077721,-6.48443 -0.222518,-1.69229 0.643316,-0.98688 -0.423007,-0.20716 -0.84914,0.6209 0.8784,4.26333 2.088119,5.80123 0.710465,0.90321 -0.797379,1.94496 -1.865165,1.26083 z m 57.743725,-4.20276 c -0.34,-0.34 -0.28779,-1.36045 0.60563,-1.79293 3.37463,-1.63363 4.73562,-5.46996 4.40163,-6.35802 -0.22487,-0.5979 -0.29715,0.0157 -1.07563,1.58037 -0.6798,1.36635 -3.21505,3.49441 -3.60662,3.49441 -0.14478,0 -0.39708,-2.10575 -0.33554,-4.57612 0.0931,-3.73778 -0.24748,-3.84257 0.48291,-4.33425 0.40171,-0.27042 1.13696,-1.02597 1.28165,-1.32678 0.25139,-0.52262 0.91556,-1.05061 3.11511,-1.17773 1.26603,-0.0732 2.9676,-0.0625 3.33299,-0.1363 0.84045,-0.16984 1.69281,0.8255 1.69222,3.60684 -0.001,5.53542 -2.43243,10.19125 -5.62565,11.22254 -1.11438,0.35991 -4.00052,0.0662 -4.2687,-0.20203 z M 84.065103,84.172967 c -0.753884,-0.30079 -1.931276,-1.380842 -2.876014,-2.768113 -1.054917,-1.54906 -0.826496,-2.540378 1.127034,-2.540378 0.920018,0 2.808068,0.04273 4.080262,-0.135852 1.272195,-0.178585 2.998514,-0.959319 3.732971,-0.03789 0.524554,0.658093 -0.317279,3.221962 -0.828362,4.019558 -0.830737,1.296451 -3.844182,2.017945 -5.235891,1.462671 z M 80.68052,77.940881 C 72.000809,77.212438 63.93143,71.857336 60.396448,64.373622 c -0.529044,-1.12001 -0.404291,-0.958238 -1.773644,-0.65179 -1.551903,0.3473 -4.590298,-0.715541 -5.624043,-1.219065 -3.251653,-1.583837 -5.168037,-9.15187 -2.271212,-11.589388 1.149786,-0.967481 6.675375,-1.677097 7.974842,-0.451782 0.85225,0.803619 0.490084,1.487103 1.832142,0.006 1.564376,-1.726463 2.246081,-3.208024 2.680969,-4.554235 0.190215,-0.588818 0.179077,-0.904989 1.34593,-1.797616 0.566475,-0.433345 8.086041,-2.141425 13.05275,-2.723067 5.993739,-0.701916 15.779464,-1.377071 20.20468,-1.399098 4.481508,-0.02231 5.239678,0.244634 5.870718,4.74233 0.5021,3.578721 0.50595,6.993321 0.65061,11.475059 0.1232,3.816508 0.3141,4.448505 -0.24269,6.609851 -0.91767,3.562258 -2.38475,6.57104 -4.553501,9.034874 -3.129535,3.555339 -12.671317,6.604869 -18.863479,6.085193 z"
         id="path45" /><path
         style="display:inline;fill:#f5c549"
         d="m 72.980694,118.89159 c -2.628179,-0.0923 -9.044367,-0.5198 -10.972512,-0.73115 -1.097357,-0.12028 -2.227691,-0.24348 -2.511854,-0.27377 -0.284163,-0.0303 -1.080778,0.26901 -1.428203,-0.16404 -0.284724,-0.3549 0.406728,-5.42591 0.59051,-6.34286 0.123408,-0.61573 0.986063,-0.3774 5.558486,0.29106 4.350698,0.63603 4.716016,0.64782 4.918105,0.15875 0.295548,-0.71524 0.390878,-11.93245 0.12181,-14.333039 -0.811454,-7.239693 -1.695669,-11.134648 -3.189888,-14.051412 -0.23816,-0.464897 -0.665155,-1.374289 -0.948876,-2.020869 -0.283721,-0.646581 -0.875025,-1.643753 -1.314009,-2.215938 -0.888699,-1.158357 -1.59573,-2.399854 -0.296714,-2.562111 0.722057,-0.09019 1.962249,-0.276738 2.054354,0.01346 0.142128,0.447807 5.285481,6.084469 6.862097,7.346466 1.220113,0.976635 1.459889,1.991778 2.023249,4.389759 0.165712,0.705361 0.580675,2.002103 0.806735,2.766244 1.57255,5.315618 2.241351,9.57249 2.245034,16.32747 0.0018,3.29467 0.169963,4.30156 0.353428,4.48502 0.314992,0.31499 1.716088,0.93893 6.012115,0.64675 2.011513,-0.13682 4.160932,-0.61415 4.288864,-0.48622 0.126427,0.12643 0.510584,2.63135 0.394852,4.54081 -0.18566,3.06328 -1.460372,2.26069 -7.872742,2.26069 -3.526804,0 -6.989484,-0.0203 -7.694845,-0.045 z m 16.120662,-3.42736 c 0,-3.41162 -0.236058,-3.36441 2.635522,-3.54641 5.125641,-0.32486 6.127718,-1.17055 6.431045,-1.47291 0.585461,-0.5836 0.550922,-8.45953 -0.132331,-12.562243 -1.045115,-6.275571 -2.029791,-10.083819 -3.086762,-11.938085 -0.530223,-0.930183 -0.860704,-2.110472 -0.144266,-1.955499 0.39404,0.08523 1.601829,0.33982 2.164647,0.62345 1.058584,0.533468 0.364907,-1.984897 1.17192,-2.71135 0.595039,-0.535639 1.575796,3.07387 2.244909,5.203265 0.84932,2.702897 1.50449,8.526847 1.75514,12.595058 0.70933,11.512654 1.59306,10.777854 3.62066,10.578064 1.49496,-0.14731 1.49496,0.0415 1.49496,3.48908 0,1.89615 0.3056,2.92915 -0.44357,3.35518 -1.26849,0.0482 -2.31039,0.25074 -4.01501,0.55468 -1.70462,0.30394 -4.301635,0.63225 -5.771136,0.72958 -1.469502,0.0973 -3.609015,0.25215 -4.755842,0.32337 -3.87806,0.24082 -3.169886,0.1464 -3.169886,-3.26523 z M 49.802626,46.308681 c -0.625558,-1.02599 -0.344158,-2.648291 0.461948,-2.891706 1.340461,-0.40477 1.279713,0.01263 1.083828,-3.358793 -0.261379,-4.498658 0.302891,-7.428463 2.490223,-12.164627 2.253323,-4.879051 8.836744,-9.604002 14.286941,-12.172438 3.475524,-1.637861 -6.760081,1.937816 6.938873,-3.102867 1.939389,-0.71362 6.469416,-0.132166 8.118867,0.288675 1.031816,0.263258 2.774676,1.432254 3.520284,2.750284 0.19271,0.340658 1.019755,1.921988 1.666911,3.00116 1.275732,2.127364 1.795092,3.892849 2.700077,7.775058 0.829988,3.560486 -0.183762,2.308049 0.850965,2.169263 1.120691,-0.150316 0.426657,0.657228 0.426657,-0.226717 0,-1.847791 -1.825302,-7.262074 -3.207552,-10.008181 -0.405487,-0.805579 -0.544188,-2.566994 0.639877,-3.051641 0.237608,-0.09725 3.831726,2.141673 5.156497,3.120629 3.374687,2.493766 8.432328,9.621989 8.885138,12.453691 0.14027,0.877227 -1.60828,1.36682 -2.5333,1.218903 -2.241763,-0.358472 -13.168284,-0.24208 -18.191044,0.284623 -7.703938,0.807861 -16.701269,3.496437 -21.271769,6.305287 -0.795601,0.488945 0.402458,-0.493258 -1.41402,0.469341 -1.240923,0.657598 -0.560128,0.591379 -1.028033,0.886754 -1.066566,0.673294 -1.057774,0.02742 -0.134176,0.951018 0.788089,0.788089 0.01489,0.244291 2.016885,-0.981067 3.650622,-2.234428 6.650181,-3.36933 15.77933,-5.557698 3.126549,-0.749471 5.571725,-1.226786 7.008585,-1.293928 1.116822,-0.05219 4.269096,0.07518 7.090539,-0.05889 4.94144,-0.234819 8.950463,0.347392 11.730023,0.812108 4.16808,0.696862 6.74194,1.94865 6.22885,4.027568 -0.22819,0.924588 -7.15245,0.816262 -7.55633,0.81959 -6.422212,0.05292 -8.678526,-0.330599 -12.228538,0.171667 -1.306281,0.119003 -3.271365,0.448377 -4.623307,0.560974 -2.651857,0.220861 -7.594027,1.034954 -8.912172,1.243313 -6.114207,0.966471 -10.315131,1.388673 -11.80206,2.013139 -0.740489,0.310984 -1.125764,0.0042 -2.169292,0.751464 -1.401867,1.003905 -0.433589,-0.02917 -2.005786,0.714744 -1.138487,0.538697 -1.657503,0.953443 -2.921523,1.387081 -2.409667,0.826667 -3.016681,1.15074 -5.062638,1.798561 -0.466739,0.147786 -1.598748,-0.415832 -2.019758,-1.106339 z"
         id="path44" /><path
         style="display:inline;fill:#ec893d"
         d="m 75.36197,132.35102 c -5.971694,-0.24627 -11.96758,-0.45386 -17.895387,-1.23635 -1.368268,-3.51528 -0.396794,-9.45804 -0.352148,-13.22297 1.990228,-0.49624 4.373693,0.28068 8.929436,0.19512 6.161018,0.23551 13.916966,1.06013 20.069261,0.6321 1.497503,-0.0746 2.293732,-1.4941 2.473269,1.29348 -0.11077,3.75341 -0.256535,6.94112 -1.181231,10.59803 -2.342032,2.89009 -8.794164,1.41593 -12.0432,1.74059 z m 15.305175,-0.91658 c -2.695029,-2.83547 -1.815612,-8.9241 -1.752082,-12.5906 4.456265,-0.936 10.187758,-0.34374 14.662497,-1.42927 8.45109,-2.5082 2.73235,5.73128 3.48144,8.20503 0.75591,5.8658 -4.59295,5.15367 -7.510371,5.8048 -2.459873,0.34629 -6.433652,0.64274 -8.881484,0.01 z M 77.202172,112.6108 c -0.585255,-5.14234 0.01455,-10.4345 -1.045484,-15.561428 -0.819864,-3.903623 -1.60431,-8.703731 -3.061261,-12.413762 1.619012,2.41312 3.793568,1.783354 5.974332,1.370229 2.819053,2.959956 6.993643,6.689343 8.927842,10.295294 0.438905,5.027657 -0.02105,10.570107 0.02699,15.616977 -2.095791,1.49921 -7.827704,0.72182 -10.822416,0.69269 z m 12.00589,-7.96936 c -0.184267,-5.409137 0.232709,-10.616785 2.386443,-15.646786 0.420575,-1.788188 2.589102,-7.66303 3.578618,-3.311716 2.603302,7.559042 3.89477,16.784382 3.320778,24.765102 -1.669621,1.74433 -7.9852,1.70882 -9.502601,1.76519 -0.05887,-2.25581 -0.0035,-4.70825 0.169548,-6.95804 z m -26.715456,7.05952 c -2.270819,-0.86478 -5.504619,0.63617 -3.632775,-3.14087 2.2556,-6.37161 4.513859,-12.729919 2.754096,-19.54052 -0.219137,-3.487309 -5.646986,-5.747268 -5.568609,-8.629854 2.751328,-1.560157 7.512481,-5.686093 8.480093,-1.155249 3.740707,6.877651 5.178496,16.549072 5.173409,24.257783 -0.105698,4.04053 1.751679,10.3549 -3.180061,8.52514 -0.840279,-0.10823 -3.188722,-0.18834 -4.026153,-0.31643 z m 40.351164,-1.61308 c -1.05197,-8.07274 -0.56114,-16.463212 -3.139426,-24.288044 -0.273573,-1.904232 -3.248823,-7.961657 -1.935076,-8.530996 4.507682,1.297574 7.542912,7.421696 8.614412,11.407524 0.93259,6.695799 0.90212,14.063066 0.90047,20.803366 0.45967,1.45778 -4.13009,1.30023 -4.44038,0.60815 z"
         id="path43" /><path
         style="display:inline;fill:#45749c"
         d="m 45.218655,128.08819 c -3.893868,-0.23452 -4.605431,-0.62724 -4.778033,-3.43013 -0.147142,-2.38942 0.07593,-10.8718 0.314919,-14.40304 0.543446,-8.02991 3.07045,-17.058616 6.84676,-22.616708 0.903024,-1.3291 5.313448,-6.643391 7.060273,-6.32821 1.37218,0.247583 3.104934,2.987722 4.235882,4.703664 2.381507,3.613364 3.078399,11.471036 0.448528,19.086454 -1.282668,3.71427 -2.375614,10.30512 -3.08983,19.77147 -0.242184,3.20996 -0.681817,3.57389 -4.773229,3.50212 -1.958701,-0.0344 -5.089669,-0.21481 -6.26527,-0.28562 z m 63.935435,-1.90167 c -0.19404,-0.35577 -0.36754,-6.92487 -0.46504,-19.29206 -0.10844,-13.753062 -0.98284,-19.124284 -1.97592,-22.398949 -0.25121,-0.828362 2.09632,1.360487 2.89403,2.71851 1.44171,2.454369 3.41983,7.237065 3.91222,9.493241 2.33273,10.688808 3.12617,14.999348 3.152,24.747418 0.0125,4.73021 -1.30942,5.01348 -3.82089,5.16894 -1.38133,0.0855 -2.17828,-0.20694 -2.37687,-0.10169 -0.1986,0.10525 -1.05763,0.14476 -1.10708,0.0541 z M 86.409062,91.498451 C 85.9644,91.012103 85.010099,89.539327 83.847768,88.269881 82.069914,86.32819 80.41535,83.911574 80.930774,84.055115 c 1.750547,0.487512 7.502391,0.484932 8.691168,-0.515358 0.77772,-0.654408 2.792161,0.488465 2.686195,1.150337 -0.03764,0.23512 -0.910336,1.960292 -1.535397,3.429793 -0.62506,1.469502 -1.211527,3.316668 -1.360963,3.816298 -0.339771,1.136008 -0.50481,2.294347 -1.491945,1.214669 z m -10.45187,-6.338382 c 0.121417,0.05059 -1.957751,-0.945455 -3.100528,-1.794661 -2.974602,-2.21045 -6.46264,-6.029579 -6.808483,-7.183898 -0.426077,-1.422118 0.761459,-3.219149 3.041824,-1.813449 1.783607,1.099476 5.687816,3.030598 8.801665,4.101923 0.772373,0.265736 1.32895,1.612555 2.229076,3.345222 1.109345,2.135398 0.171359,3.49204 -0.842659,3.327488 -0.582879,-0.09459 -1.130568,-0.656662 -1.750353,-0.112524 -0.786061,0.690171 -3.078377,-0.49836 -2.70362,-0.342212 z m 19.901495,-1.760455 c -0.586916,-0.304609 -2.303681,-0.808688 -3.053151,-0.876648 -0.741121,-0.0672 -2.276259,-0.217755 -2.271097,-0.354344 0.0049,-0.130622 0.511969,-1.619849 0.722818,-2.50155 0.358238,-1.498037 1.049326,-2.241883 1.793894,-2.598945 1.658533,-0.795359 2.544715,-0.413083 2.812252,0.748463 0.130842,0.568067 0.621238,2.244636 0.91666,3.264084 0.679406,2.34451 0.713598,3.167488 -0.921376,2.31894 z"
         id="path42" /><path
         style="display:inline;fill:#8d6d47"
         d="m 61.305574,193.04191 c -3.61563,-0.28338 -6.826625,-1.72382 -7.703624,-2.83874 -0.820295,-1.04284 -0.299581,-3.64247 1.107745,-6.81125 0.417689,-0.94048 0.529602,-1.2652 0.887964,-2.0108 0.142352,-0.29617 0.780128,-1.08441 1.241736,-0.96735 2.764931,0.70115 9.663836,1.22715 13.798544,1.02764 4.09914,-0.19779 4.671178,0.45461 5.041359,3.6394 0.274859,2.3647 -0.253717,4.47959 -1.087187,5.73905 -1.400858,2.11684 -6.723509,2.73645 -13.286537,2.22205 z m 39.510006,-1.8752 c -1.175603,-0.0856 -3.099904,0.0667 -4.510626,-0.18892 -1.410721,-0.25561 -3.220636,-0.98279 -3.846233,-1.08857 -0.625598,-0.10577 -2.25343,-0.36544 -3.558803,-0.92865 -2.171204,-0.93677 -2.82765,-1.47131 -3.071782,-2.15568 -0.375074,-1.05145 -0.713867,-3.72704 -0.287612,-5.24079 0.344306,-1.22274 1.014086,-2.191 1.621475,-2.14124 5.616856,0.46013 10.233055,0.37338 13.380071,-0.85418 0.97251,-0.37935 4.37956,-0.69419 4.55939,-0.56006 0.37743,0.28153 3.64671,2.79813 4.33087,3.21975 1.05027,0.64724 3.318,2.7651 3.67826,3.5243 0.93564,1.9717 0.19153,5.15653 -2.57858,5.97539 -1.1207,0.33129 -6.77977,0.55313 -7.23238,0.57918 -1.35332,0.0779 -1.30845,-0.0549 -2.48405,-0.14053 z"
         id="path41" /><path
         style="display:inline;fill:#3a4b57;stroke-width:1.04932"
         d="m 58.532385,180.96023 c -2.87125,-0.25942 -3.645732,-0.70938 -3.886182,-2.25779 -0.162574,-1.04691 -0.06176,-7.53779 0.189846,-12.22337 0.03975,-0.74015 0.133371,-2.8092 0.208058,-4.59791 0.309864,-7.42102 1.378275,-17.86418 1.86731,-18.252 1.773239,-1.4062 2.41431,-3.66091 2.07224,-7.28826 -0.128424,-1.36182 -0.297205,-2.64206 -0.375068,-2.84498 -0.288646,-0.75219 -0.113111,-0.75349 9.007467,-0.0668 8.762963,0.65971 17.63146,0.19634 20.129856,-1.05178 1.065362,-0.53221 1.065362,-0.53221 2.172348,0.15593 1.106985,0.68814 1.106985,0.68814 5.214707,0.67099 3.164684,-0.0132 4.699872,-0.1262 6.687033,-0.49216 4.65069,-0.85649 4.11636,-1.18052 3.94921,2.39487 -0.0801,1.71152 -0.19157,6.13974 -0.2479,9.84049 -0.0563,3.70076 -0.15468,7.83888 -0.21854,9.19583 -0.0639,1.35694 -0.1665,3.93064 -0.22813,5.71934 -0.33838,9.82191 -0.60889,15.83092 -0.74982,16.65645 -0.19486,1.14149 -0.78946,1.5375 -3.31096,2.2052 -3.293289,0.87206 -14.153308,0.8154 -15.047217,-0.0785 -0.368907,-0.36891 -1.274014,-8.08755 -1.742295,-14.85811 -0.187705,-2.71388 -0.389347,-5.48944 -0.448094,-6.16792 -0.111867,-1.29195 -0.215416,-5.5624 0.366319,-7.39764 0.18097,-0.57091 0.550539,-1.81777 0.741543,-2.85051 0.191004,-1.03274 0.582391,-2.90796 0.909611,-4.32658 0.967927,-4.19634 1.649066,-4.12933 0.05499,-3.72924 -0.706299,0.17727 -0.264919,0.45416 -1.009829,3.72476 -0.320583,1.40755 -0.950589,3.13215 -1.120989,3.8723 -0.170402,0.74015 -0.39801,2.85658 -0.784819,4.5836 -0.386807,1.72702 -0.832754,3.51236 -0.951131,3.96743 -0.643714,2.47458 -3.150059,15.9421 -4.008671,21.30791 -0.639858,3.99873 -1.687787,3.81318 -2.843569,4.00517 -1.465925,0.24351 -14.355407,0.38589 -16.597324,0.18334 z"
         id="path40" /><path
         style="display:inline;fill:#2f3534"
         d="m 62.079664,194.93329 c -5.949717,-0.69691 -10.070652,-2.59662 -10.490791,-4.83616 -0.318821,-1.69946 0.788718,-5.85345 2.172551,-8.14848 1.064499,-1.76543 1.113181,-2.1083 0.404388,-2.84812 -0.592952,-0.6189 -0.592952,-0.6189 -0.44913,-4.10069 0.330731,-8.00666 0.804522,-17.47546 1.10283,-22.04026 0.175353,-2.68331 0.271521,-4.95529 0.213705,-5.04884 -0.203001,-0.32846 -2.312659,-0.3917 -3.032565,-0.0909 -1.705925,0.71278 -4.186819,0.22001 -5.927868,-1.17744 -0.457016,-0.36682 -1.006475,-0.66694 -1.22102,-0.66694 -2.5216,0 -4.950316,-2.72121 -5.913898,-6.62612 -0.729436,-2.95603 -0.302841,-7.48258 0.929828,-9.8663 0.337411,-0.65248 0.332303,-0.67472 -0.264251,-1.15077 -0.608312,-0.48544 -0.608312,-0.48544 -0.605335,-6.43676 0.01008,-20.13966 3.508019,-31.7654 11.863592,-39.429751 3.719439,-3.411745 10.650442,-7.026378 13.472971,-7.026378 0.543542,0 0.553327,-0.02674 0.536845,-1.467235 -0.01679,-1.467235 -0.01679,-1.467235 -1.297447,-2.836983 -1.918415,-2.051869 -2.76134,-3.133745 -3.720656,-4.775379 -0.868357,-1.485981 -0.868357,-1.485981 -3.489094,-1.494096 -3.174474,-0.0098 -4.344329,-0.443667 -6.002181,-2.225895 C 47.34216,59.393238 47.241625,53.412508 50.149916,50.014824 50.913841,49.12235 50.913841,49.12235 49.725818,48.063482 48.5104,46.980197 48.053746,46.105389 48.016426,44.78881 c -0.02669,-0.941683 0.463224,-2.056256 0.989396,-2.2509 0.406553,-0.150394 0.432636,-0.358593 0.459478,-3.66765 0.04004,-4.935824 0.220832,-5.629945 3.077196,-11.814198 2.471657,-5.351333 8.885306,-10.788606 15.147878,-12.841853 0.617127,-0.202331 1.249345,-0.549615 1.404929,-0.771743 1.003289,-1.432394 5.031893,-2.388396 10.190889,-2.418332 4.263332,-0.02474 5.429009,0.25063 7.198354,1.700475 0.643612,0.527391 1.3584,0.866673 2.26782,1.076445 6.987278,1.611723 14.367964,9.325594 16.084184,16.810276 0.19479,0.849497 0.38186,1.643706 0.41572,1.76491 0.0339,0.121204 0.62572,0.397308 1.31526,0.613566 2.51609,0.78911 3.85998,1.710266 4.33879,2.973964 0.89915,2.373142 -1.25752,4.207563 -4.9467,4.207563 -1.72479,0 -2.23251,0.270222 -1.71196,0.911141 1.18962,1.464707 2.17117,18.548233 1.26064,21.941009 -1.17488,4.377774 -3.33359,8.145998 -6.197581,10.818455 -2.132983,1.990337 -2.128839,1.947065 -0.253051,2.642949 8.288072,3.074728 13.951722,10.876902 16.463762,22.680254 1.87717,8.820289 3.38081,26.857069 2.33526,28.012389 -0.28553,0.31552 -0.29634,0.5662 -0.0784,1.81782 0.33608,1.92991 0.13323,5.52595 -0.43335,7.68216 -1.38234,5.26077 -4.27717,7.98543 -8.6999,8.18849 -2.34601,0.10772 -2.10291,-1.05819 -2.43743,11.68986 -0.38849,14.80496 -0.56455,19.63934 -0.73366,20.14553 -0.14216,0.42554 -0.0889,0.48093 0.46283,0.48093 1.00359,0 5.11923,2.73777 6.81003,4.53011 4.66512,4.94528 2.97465,9.19951 -4.28435,10.78199 -6.63731,1.44695 -19.055946,-0.42391 -23.139945,-3.48602 -1.757292,-1.31758 -2.172534,-3.9018 -1.231105,-7.66168 0.581711,-2.32323 0.581711,-2.32323 -0.06022,-2.86976 -0.774574,-0.65946 -0.781075,-0.70004 -1.217547,-7.60014 -0.474852,-7.50683 -0.551287,-8.22921 -0.870726,-8.22921 -0.152203,0 -0.325146,0.16832 -0.384318,0.37405 -0.271847,0.94517 -1.099038,5.4733 -2.044824,11.19358 -1.033554,6.25113 -1.033554,6.25113 -1.733729,6.82258 -0.700175,0.57146 -0.700175,0.57146 -0.51844,3.00695 0.373217,5.00162 0.152065,5.92307 -1.921475,8.006 -2.439092,2.45014 -7.520943,3.55482 -13.260485,2.88252 z m 8.111434,-2.79941 c 4.150312,-1.08707 5.205513,-2.49208 4.95947,-6.60357 -0.232698,-3.88851 0.362983,-3.52648 -5.817461,-3.53562 -5.187783,-0.008 -10.361831,-0.41402 -12.275055,-0.96404 -1.012115,-0.29096 -1.004569,-0.29337 -1.167376,0.37314 -0.07897,0.32329 -0.51565,1.40538 -0.970401,2.40464 -1.236022,2.71601 -1.55981,5.51666 -0.742236,6.42007 1.808066,1.99789 11.332872,3.13124 16.013059,1.90538 z m 38.698872,-1.80521 c 2.63337,-0.69041 3.96405,-1.92585 4.12168,-3.82666 0.1558,-1.87871 -1.47411,-3.74879 -5.32836,-6.11351 -0.86225,-0.52902 -1.89016,-1.24411 -2.28423,-1.58908 -0.67175,-0.58805 -0.75867,-0.60963 -1.39149,-0.34539 -2.36086,0.98581 -3.82581,1.32084 -7.185112,1.6432 -3.41082,0.32732 -8.413221,0.30522 -9.574682,-0.0423 -1.441833,-0.4314 -2.065982,5.52332 -0.730276,6.96723 2.445152,2.64323 16.80659,4.76575 22.37247,3.30649 z M 75.652515,178.94519 c 1.101455,-0.18297 1.198808,-0.41018 1.80859,-4.22095 0.818254,-5.1136 3.33111,-18.2278 3.944567,-20.58606 0.112813,-0.43368 0.506718,-2.13511 0.875344,-3.78095 0.368627,-1.64584 0.803096,-3.56955 0.965488,-4.27491 0.162391,-0.70536 0.545224,-2.37998 0.850739,-3.72137 0.709896,-3.11687 1.004101,-3.81586 1.677201,-3.9848 1.519147,-0.38128 1.647024,0.39402 0.724594,4.39311 -0.311839,1.35194 -0.71591,3.26333 -0.897936,4.24753 -0.182026,0.9842 -0.472063,2.23461 -0.644527,2.77869 -0.554391,1.74897 -1.170548,5.84977 -1.06394,7.081 0.05599,0.64658 0.24815,3.29168 0.427032,5.878 0.44627,6.45231 1.308833,13.80814 1.6604,14.15971 0.851891,0.85189 11.201443,0.90588 14.339933,0.0748 2.40298,-0.63631 2.96963,-1.01371 3.15533,-2.10154 0.13431,-0.78673 0.3921,-6.51329 0.71458,-15.87353 0.0587,-1.70462 0.15656,-4.15735 0.21741,-5.45051 0.0609,-1.29316 0.15456,-5.23677 0.20826,-8.76358 0.0537,-3.5268 0.16,-7.74688 0.23625,-9.37795 0.15929,-3.40733 0.66851,-3.09853 -3.76358,-2.2823 -1.893757,0.34876 -3.356785,0.45644 -6.372715,0.46903 -3.914642,0.0163 -3.914642,0.0163 -4.969594,-0.63945 -1.054953,-0.6558 -1.054953,-0.6558 -2.070238,-0.1486 -2.380961,1.18945 -10.832601,1.63104 -19.183668,1.00234 -8.691872,-0.65436 -8.859156,-0.65312 -8.584078,0.0637 0.0742,0.19338 0.235051,1.41344 0.357439,2.71125 0.325991,3.45685 -0.284947,5.60558 -1.974836,6.94568 -0.466049,0.36959 -1.48424,10.32188 -1.779539,17.39408 -0.07118,1.70463 -0.160402,3.67643 -0.198278,4.38179 -0.239781,4.46534 -0.335855,10.65112 -0.180923,11.64882 0.229148,1.47563 0.967226,1.90444 3.703515,2.15166 2.136538,0.19303 14.420159,0.0573 15.81718,-0.17472 z M 50.068408,145.92243 c -1.475432,-1.55264 -2.702131,-6.37304 -1.840964,-7.23421 0.656282,-0.65628 1.207472,-0.12796 1.470221,1.40922 0.615638,3.60172 2.062017,5.68056 4.165039,5.98632 1.168951,0.16995 1.369973,-0.0138 1.576472,-1.44085 0.13118,-0.90655 0.07744,-1.11218 -0.516054,-1.9748 -0.935288,-1.35939 -1.286412,-2.50595 -1.286412,-4.20064 0,-1.46934 0,-1.46934 0.726168,-1.46934 0.726168,0 0.726168,0 0.972438,1.41419 0.469738,2.69743 1.657855,4.17748 2.336123,2.91012 0.485531,-0.90722 0.724994,-3.88598 0.471376,-5.86359 -0.298935,-2.33097 -0.350612,-2.4379 -1.740599,-3.60166 -0.601295,-0.50343 -1.173752,-1.12703 -1.272127,-1.38578 -0.200308,-0.52685 -1.955016,-0.66972 -9.713635,-0.7909 -3.624724,-0.0566 -3.624724,-0.0566 -4.148684,1.43961 -1.479655,4.22531 -0.165718,11.88531 2.225607,12.97487 0.760073,0.34632 0.785842,0.21014 0.311323,-1.64521 -0.23528,-0.91994 -0.427783,-2.27191 -0.427783,-3.00438 0,-1.33177 0,-1.33177 0.7688,-1.42153 0.882057,-0.10297 1.154911,0.30529 1.154911,1.72807 0,1.75584 1.171152,4.56913 2.385553,5.73049 1.573785,1.50503 3.781865,1.91287 2.382227,0.44 z m 61.445022,-3.60124 c 2.23158,-1.08575 3.22879,-2.70255 4.14005,-6.71241 0.45252,-1.9912 0.48543,-6.52295 0.0505,-6.94618 -0.18072,-0.17583 -4.1946,0.0861 -5.94957,0.38823 -0.66759,0.11494 -0.87199,0.25772 -0.97111,0.67834 -0.0751,0.31858 -0.44637,0.71271 -0.9236,0.9804 -0.79804,0.44766 -0.79804,0.44766 -0.89622,4.53291 -0.0678,2.82029 -0.0259,4.1299 0.13514,4.22945 0.38823,0.23994 2.68459,-2.37571 3.39796,-3.87043 0.65688,-1.37637 0.96219,-1.61337 1.44999,-1.12557 1.17509,1.17509 -1.88025,5.98564 -4.31124,6.78794 -1.31838,0.4351 -1.29416,1.63183 0.0362,1.78663 1.34993,0.15709 2.44891,-0.0515 3.84199,-0.72931 z M 84.736707,131.54097 c 1.741481,-0.43695 2.317099,-0.98159 2.786696,-2.63673 0.151267,-0.53315 0.154871,-22.22497 0.0041,-24.6092 -0.04832,-0.76414 -0.0986,-2.81838 -0.111725,-4.564974 -0.02356,-3.135877 -0.03137,-3.185372 -0.623679,-3.954296 -0.3299,-0.428268 -1.036844,-1.403875 -1.570987,-2.168016 -0.826366,-1.182193 -3.272208,-4.110018 -5.226512,-6.256459 -0.991149,-1.088594 -1.082473,-1.092278 -3.417708,-0.137875 -0.64337,0.262943 -0.723253,0.239078 -1.53345,-0.458122 -0.470097,-0.404534 -1.944102,-1.660508 -3.275567,-2.791055 -3.065649,-2.60304 -5.885729,-5.504764 -6.185438,-6.36451 -0.23601,-0.677017 -0.487373,-0.833375 -0.724067,-0.450397 -0.07266,0.11756 -0.399924,0.213746 -0.727262,0.213746 -1.140839,0 -6.976612,2.529099 -7.393961,3.204385 -0.07636,0.123557 0.689033,1.16041 1.700878,2.304118 2.974379,3.361997 3.713102,4.83921 4.222971,8.444602 0.48362,3.419777 -0.464253,9.713833 -2.067255,13.726963 -1.234887,3.09155 -1.561228,4.75415 -2.034804,10.36666 -1.177013,13.94917 -1.184989,14.64594 -0.173183,15.12907 2.012211,0.96082 23.290403,1.76999 26.350965,1.00209 z m 11.476447,-0.10035 c 4.367956,-0.36197 9.416206,-1.79373 10.121876,-2.87072 0.27503,-0.41975 0.30494,-2.82256 0.22796,-18.31045 -0.10893,-21.916561 -0.0597,-21.422999 -2.68995,-26.98794 -1.22687,-2.595795 -1.22687,-2.595795 -3.55549,-3.878057 -2.808902,-1.546736 -2.971465,-1.601044 -2.783132,-0.929766 0.932194,3.322636 1.466888,6.044396 1.287976,6.556211 -0.243602,0.696882 -1.05337,0.852851 -1.969156,0.37928 -2.108849,-1.090528 -3.479423,-1.060427 -3.640924,0.07996 -0.04082,0.288246 -0.445114,1.58585 -0.898429,2.883565 -2.092604,5.990545 -2.567996,8.200636 -2.64545,12.298657 -0.172155,9.10858 0.199433,28.50526 0.558948,29.17679 0.922275,1.72271 1.776176,1.95131 5.985771,1.60247 z m -41.313436,-4.02468 c 0.115126,-0.21511 0.311864,-1.53766 0.437196,-2.939 0.937823,-10.48581 1.19205,-12.57313 1.944147,-15.96232 0.241081,-1.08639 0.768045,-2.9852 1.17103,-4.21958 1.977361,-6.056846 2.470497,-11.550182 1.381531,-15.389691 -0.56654,-1.997521 -4.347704,-7.048014 -5.279433,-7.051727 -0.673968,-0.0027 -4.91524,4.225715 -6.108409,6.089871 -3.181845,4.97118 -5.837425,12.543007 -6.559402,18.702747 -0.130901,1.11682 -0.28399,2.36723 -0.340197,2.77869 -0.199391,1.45963 -0.33516,16.99631 -0.150806,17.25747 0.341948,0.4844 2.468445,0.74531 7.325184,0.89874 2.645103,0.0836 5.070404,0.16858 5.389558,0.18893 0.370762,0.0236 0.655859,-0.10423 0.789601,-0.35413 z m 58.044772,-1.33922 c 1.52466,-0.12676 2.63152,-0.31674 2.7395,-0.47021 0.54618,-0.7763 -0.4037,-17.53999 -1.20903,-21.33701 -0.18403,-0.86765 -0.63388,-3.02034 -0.99967,-4.78374 -1.02625,-4.947351 -2.83738,-9.578954 -5.12208,-13.098679 -1.1507,-1.772724 -1.34319,-1.543301 -0.73028,0.870423 0.9859,3.882598 1.11879,6.373976 1.26504,23.717106 0.12681,15.03849 0.16366,15.64235 0.94285,15.45111 0.30545,-0.075 1.70661,-0.23202 3.11367,-0.349 z M 88.64328,91.800523 c 0.140078,-0.523737 0.779482,-2.182937 1.420898,-3.687113 1.560681,-3.659935 1.600316,-3.846985 0.873684,-4.12325 -0.497046,-0.188977 -0.687792,-0.131116 -1.383033,0.419525 -1.806446,1.430731 -5.526305,1.776813 -7.293088,0.67852 -1.871306,-1.163268 -1.538276,-0.543227 1.170607,2.179449 1.440034,1.447368 3.040365,3.273624 3.556291,4.058347 1.106171,1.682487 1.315504,1.742519 1.654641,0.474522 z M 77.637647,84.39845 c 0.701669,-0.578374 0.904804,-0.641779 1.651793,-0.515576 1.089241,0.184026 1.085338,0.136575 -0.199305,-2.423375 -1.009733,-2.012127 -1.087435,-2.104932 -1.977147,-2.361407 -2.177777,-0.627782 -5.987321,-2.319849 -7.830585,-3.478075 -2.327356,-1.462407 -2.607206,-1.520703 -2.607206,-0.543112 0,1.466011 2.862939,4.726237 6.627563,7.547262 1.116025,0.836295 2.212369,1.726011 2.43632,1.977148 0.551458,0.618401 0.954471,0.575339 1.898567,-0.202865 z m 9.236517,-0.81125 c 1.288498,-0.591681 2.409945,-2.296354 2.802746,-4.260357 0.16047,-0.802353 0.303194,-0.782326 -2.589001,-0.363291 -1.175601,0.170327 -3.069589,0.312735 -4.208862,0.316463 -1.139273,0.0037 -2.128909,0.09982 -2.19919,0.213536 -0.07028,0.113718 0.381097,0.955341 1.003063,1.870275 1.6677,2.453249 3.231813,3.123148 5.191244,2.223374 z m 9.939174,-0.487162 c 0,-0.136358 -0.336649,-1.384544 -0.74811,-2.773748 -0.41146,-1.389204 -0.74811,-2.714746 -0.74811,-2.945648 0,-0.680668 -0.321484,-0.699434 -1.805382,-0.105389 -1.134659,0.454235 -1.4289,0.670636 -1.531808,1.126577 -0.07006,0.310389 -0.26161,1.107249 -0.425676,1.770799 -0.457129,1.848816 -0.476353,1.814414 1.095939,1.961237 0.846557,0.07905 1.791145,0.336433 2.404639,0.655215 1.112319,0.577979 1.758508,0.692244 1.758508,0.310957 z M 87.22469,76.943751 c 7.895793,-1.654915 11.769833,-4.276113 14.50438,-9.813748 1.6146,-3.26967 2.02171,-5.164267 2.02666,-9.431524 0.008,-6.897321 -1.06287,-16.388826 -1.93028,-17.108713 -0.33456,-0.27766 -8.068798,-0.151997 -12.600084,0.204721 -1.293161,0.101802 -3.793986,0.295334 -5.557387,0.430072 -5.88895,0.449962 -11.257564,1.221321 -15.924054,2.28796 -3.139328,0.717569 -3.088668,0.685803 -3.61604,2.26744 -0.521203,1.563134 -1.563103,3.185906 -3.269386,5.09211 -1.221165,1.364245 -1.221165,1.364245 -1.816838,0.882161 -1.542387,-1.24827 -4.445808,-1.886549 -6.099296,-1.340848 -2.44557,0.807111 -3.696542,6.002017 -2.176358,9.037754 1.586166,3.1675 4.106215,4.243532 7.932749,3.387191 1.281371,-0.286759 1.816186,-0.0532 2.121903,0.926657 0.302651,0.970028 2.343567,4.087799 3.481756,5.318845 3.701717,4.003718 9.240159,7.081489 14.128794,7.851519 0.881701,0.138881 1.747371,0.280778 1.923711,0.315327 1.214236,0.237899 5.098288,0.06437 6.86977,-0.306924 z m -3.663584,-8.214395 c -2.574734,-0.573417 -6.290023,-3.606002 -5.662241,-4.621775 0.461948,-0.747447 0.938922,-0.642211 2.20352,0.486168 2.260415,2.01693 3.193171,2.402667 5.809923,2.402667 2.24433,0 2.24433,0 4.427015,-1.048276 2.324897,-1.116575 2.840338,-1.122299 2.840338,-0.03154 0,1.920744 -5.889963,3.643147 -9.618555,2.812755 z m 5.91363,-7.325952 c -0.32935,-0.32935 -0.09941,-1.101272 0.49874,-1.674341 1.346397,-1.28993 0.732887,-2.542888 -1.251841,-2.556609 -1.09383,-0.0076 -1.212743,-0.05425 -1.276079,-0.501032 -0.09793,-0.690798 0.252152,-1.024823 1.368758,-1.305988 3.14503,-0.791927 5.327776,3.544487 2.83846,5.639108 -0.612739,0.515586 -1.837098,0.739802 -2.178038,0.398862 z m -13.877705,-6.28814 c -1.154278,-0.672162 -1.317482,-2.926429 -0.286509,-3.957403 2.042284,-2.042284 5.077313,0.8834 3.213821,3.098034 -0.739697,0.87908 -2.171593,1.299441 -2.927312,0.859369 z M 94.84279,53.412398 c -1.790423,-0.945419 -1.64666,-3.1706 0.268841,-4.161144 0.955455,-0.494085 1.472668,-0.381934 2.368091,0.513488 2.058746,2.058747 -0.06983,5.003194 -2.636932,3.647656 z M 72.15884,46.834055 c -0.575465,-0.635881 -0.413491,-1.076861 0.641217,-1.745737 2.025396,-1.284468 5.593064,-1.876608 6.444975,-1.069696 0.979279,0.927552 0.58786,1.371169 -1.348187,1.527976 -1.765845,0.143022 -3.103259,0.531236 -4.336169,1.258671 -0.873898,0.515612 -0.959671,0.517374 -1.401836,0.02879 z m 26.269881,-1.42155 c -1.014186,-0.82814 -3.120822,-1.305789 -4.349223,-0.986125 -2.281379,0.59368 -2.569957,0.528096 -2.305886,-0.524047 0.556615,-2.21773 7.371611,-1.631355 7.952797,0.684274 0.286801,1.142724 -0.385601,1.570668 -1.297688,0.825898 z m -46.392592,1.38088 c 0.221122,-0.357782 2.015005,-1.179775 3.951784,-1.810785 0.999261,-0.325564 2.367006,-0.819892 3.039435,-1.098508 0.672428,-0.278616 1.469157,-0.506574 1.770507,-0.506574 0.301351,0 1.019936,-0.239193 1.596855,-0.53154 1.709396,-0.866217 4.541958,-1.520712 11.654713,-2.692955 2.425564,-0.399753 8.626969,-1.047646 14.214088,-1.485018 2.721134,-0.213016 11.084935,-0.405111 17.099659,-0.392734 2.31887,0.0048 3.10822,-0.220021 3.45647,-0.984345 0.37768,-0.828932 -0.13449,-1.201688 -2.86023,-2.081665 -3.07572,-0.992967 -6.910962,-1.549418 -10.642292,-1.54408 -8.980846,0.01285 -13.237861,0.287801 -16.244672,1.049217 -1.116821,0.282813 -3.040532,0.750786 -4.274913,1.039941 -6.23088,1.459588 -9.881408,2.781747 -13.359106,4.83844 -2.300339,1.36041 -2.384323,1.381703 -3.004309,0.761717 -0.750304,-0.750305 -0.654103,-1.090367 0.492798,-1.741998 0.55841,-0.317271 1.592405,-0.928344 2.297766,-1.35794 2.180488,-1.328015 5.01313,-2.537017 7.79999,-3.329118 5.527786,-1.571146 10.340633,-2.630914 13.040214,-2.871396 1.469501,-0.130905 3.285305,-0.341891 4.035118,-0.468858 0.756963,-0.128177 1.992804,-0.166306 2.778694,-0.08573 0.778468,0.07981 2.642832,0.02512 4.143032,-0.121536 2.095127,-0.204821 3.507735,-0.211717 6.091752,-0.02974 1.850268,0.130304 3.432998,0.171417 3.517188,0.09136 0.78336,-0.744894 -2.59827,-6.952738 -5.445282,-9.996206 -2.203268,-2.3553 -6.531325,-5.211521 -7.897066,-5.211521 -0.49327,0 -0.545774,-0.173375 0.67162,2.217747 1.443298,2.834826 3.219719,8.561093 3.219719,10.378716 0,1.395127 -1.912889,1.785594 -2.165463,0.442024 -1.115324,-5.932979 -2.197898,-8.695996 -5.254161,-13.410008 -1.277334,-1.970173 -1.675029,-2.244753 -3.771587,-2.604014 -2.68944,-0.460856 -9.328374,0.06311 -9.328374,0.736232 0,0.132074 0.680178,0.70488 1.511506,1.272901 3.147823,2.150812 5.803325,6.886544 6.294948,11.226195 0.07325,0.646581 0.229066,1.679932 0.346261,2.296337 0.289827,1.524393 0.123353,1.920704 -0.925442,2.203115 -1.107788,0.298296 -1.214036,0.179641 -1.462659,-1.633462 -0.578621,-4.219641 -0.73063,-4.998498 -1.205967,-6.179048 -1.386027,-3.442353 -2.898867,-5.38579 -5.475591,-7.034101 -1.22581,-0.784141 -1.22581,-0.784141 -2.761447,-0.326809 -5.699337,1.697336 -12.054055,6.886375 -14.569259,11.896744 -2.244371,4.470861 -2.950093,7.646128 -2.673616,12.029456 0.209258,3.317617 0.03139,3.860732 -1.33007,4.061294 -0.684072,0.100773 -0.722339,0.150511 -0.657809,0.854982 0.141327,1.542842 1.732236,3.027979 2.285198,2.133268 z"
         id="path39" /></g></g></svg>
