<?xml version="1.0" encoding="UTF-8" standalone="no"?>
<!-- Created with Inkscape (http://www.inkscape.org/) by @Ahmed-Dghaies-->

<svg
   width="600mm"
   height="400mm"
   viewBox="0 0 600 400"
   version="1.1"
   id="svg1"
   xml:space="preserve"
   xmlns="http://www.w3.org/2000/svg"
   xmlns:svg="http://www.w3.org/2000/svg"><defs
     id="defs1" /><g
     id="layer1"><g
       id="g3"
       transform="translate(-2.5169488,7.5508436)"><path
         style="fill:#f6d85d"
         d="m 76.023103,331.49562 c -0.187604,-0.30355 -0.05797,-1.1761 0.288077,-1.939 0.346046,-0.76291 7.455599,-22.32833 15.799007,-47.92317 12.760423,-39.14478 15.410803,-46.73 16.687013,-47.75708 3.59367,-2.89217 34.6815,-21.74872 35.85598,-21.74872 0.18566,0 -4.01747,12.45005 -18.4297,54.59039 -3.14231,9.18789 -7.09019,21.26937 -8.77308,26.84774 -1.68288,5.57836 -4.14711,12.96149 -5.47606,16.40694 -1.32895,3.44546 -3.55798,9.60516 -4.9534,13.68823 -1.76597,5.16731 -2.87713,7.55733 -3.65574,7.86323 -1.65219,0.64911 -26.939595,0.6227 -27.342097,-0.0286 z m 184.326797,0.25124 c -0.32814,-0.11355 -2.39953,-0.38121 -4.6031,-0.59479 -3.68231,-0.3569 -4.10183,-0.54261 -5.185,-2.29522 -2.26122,-3.65873 -19.6743,-56.73888 -18.87596,-57.53944 0.23203,-0.23268 6.4255,-0.50848 13.76325,-0.61289 l 13.34137,-0.18983 0.67035,2.5763 c 0.36869,1.41696 2.14737,7.54313 3.95261,13.6137 9.24278,31.08108 12.52694,41.76417 13.61819,44.29876 0.41632,0.96698 -0.16098,1.0406 -7.81779,0.99698 -4.54702,-0.0259 -8.53578,-0.14001 -8.86392,-0.25357 z m 68.92062,-1.63834 c 0.006,-0.73831 2.08699,-7.38312 4.62377,-14.76625 l 4.61234,-13.42387 5.07124,-3.41017 c 14.09876,-9.48078 29.06785,-18.73594 29.53521,-18.26116 0.10457,0.10623 -1.10483,4.22031 -2.68755,9.14239 -6.94122,21.58633 -10.75661,33.6503 -11.65133,36.84066 -1.5251,5.43808 -0.85361,5.22079 -16.13387,5.22079 h -13.38125 z m 171.35664,-2.99266 c -2.72112,-8.68429 -13.31658,-40.62601 -19.83681,-59.8012 C 454.9396,191.29072 433.64387,127.40647 433.28894,124.81697 l -0.35601,-2.59736 2.83674,-0.38882 c 1.5602,-0.21384 7.73013,-0.38881 13.71094,-0.38881 h 10.87422 l 1.53408,4.32547 c 0.84375,2.379 3.27557,9.17612 5.40404,15.10471 2.12847,5.92858 6.01807,17.4731 8.64356,25.6545 2.62548,8.18139 7.48655,22.92957 10.80236,32.77374 3.31581,9.84417 7.78908,23.53652 9.94059,30.42743 2.15151,6.89092 5.13474,15.75067 6.6294,19.68834 1.49466,3.93767 3.3765,8.9045 4.18186,11.0374 0.80536,2.13291 2.79838,8.30788 4.42893,13.72218 5.70766,18.95248 9.01116,29.04674 13.9833,42.72772 2.75684,7.58552 5.01243,13.96185 5.01243,14.16964 0,0.20779 -6.51057,0.37349 -14.46794,0.36822 l -14.46795,-0.01 z m -364.187,-57.52398 c 0.43068,-0.17235 0.94526,-0.15115 1.14351,0.0471 0.19825,0.19825 -0.15412,0.33926 -0.78306,0.31335 -0.69502,-0.0286 -0.83639,-0.17 -0.36045,-0.36045 z m 44.11927,-0.61103 c 0.74214,-0.1427 1.81605,-0.13729 2.38647,0.012 0.57041,0.14933 -0.0368,0.26609 -1.34935,0.25947 -1.31255,-0.007 -1.77926,-0.1288 -1.03712,-0.27151 z m 10.13552,-0.0234 c 3.69156,-0.10468 9.7323,-0.10468 13.42387,0 3.69156,0.10467 0.67119,0.19032 -6.71194,0.19032 -7.38312,0 -10.40349,-0.0856 -6.71193,-0.19032 z m 26.56078,0.0319 c 0.58049,-0.15127 1.38592,-0.14132 1.78985,0.0221 0.40393,0.16343 -0.071,0.2872 -1.05543,0.27504 -0.98442,-0.0122 -1.31491,-0.14587 -0.73442,-0.29714 z m 120.80344,0.0183 c 0.41017,-0.16551 1.08137,-0.16551 1.49154,0 0.41017,0.16551 0.0746,0.30092 -0.74577,0.30092 -0.82035,0 -1.15594,-0.13541 -0.74577,-0.30092 z m 128.57081,-0.61275 c 0.57424,-0.15007 1.51391,-0.15007 2.08815,0 0.57425,0.15006 0.10441,0.27284 -1.04407,0.27284 -1.14849,0 -1.61833,-0.12278 -1.04408,-0.27284 z m -253.03063,-7.29792 c 0.13666,-0.41 5.46054,-5.96133 11.83082,-12.3363 9.44825,-9.45518 12.02003,-11.7087 13.95775,-12.23047 2.43186,-0.65483 30.54739,-0.19208 35.12645,0.57814 l 2.23214,0.37546 -12.52212,11.79758 -12.52212,11.79759 -19.1757,0.38172 c -15.20584,0.30269 -19.12426,0.22739 -18.92722,-0.36372 z m 97.9104,0.10292 c -7.3011,-0.0949 -13.27472,-0.3453 -13.27472,-0.5564 0,-0.2111 5.29622,-5.57477 11.76938,-11.91927 9.30915,-9.12412 12.20876,-11.62933 13.87133,-11.98455 2.36455,-0.50522 26.58783,-0.62401 27.07864,-0.13281 0.17383,0.17397 -0.97182,4.33537 -2.54589,9.24756 -1.57406,4.91218 -3.18852,10.3036 -3.58767,11.98092 l -0.72573,3.04967 -3.98746,0.37663 c -2.19311,0.20715 -6.538,0.31683 -9.65532,0.24373 -3.11732,-0.0731 -11.64147,-0.21056 -18.94256,-0.30548 z m 40.6655,-0.44968 c 0.2671,-0.65539 0.8217,-2.39976 1.23244,-3.87639 0.41074,-1.47662 2.64742,-8.59127 4.9704,-15.81033 2.32298,-7.21905 5.04944,-15.86878 6.05878,-19.2216 1.98167,-6.58265 1.84679,-6.41578 8.23617,-10.19028 2.05643,-1.21483 6.39643,-4.15533 9.64443,-6.53446 4.96145,-3.6342 17.93895,-11.27147 17.93895,-10.55708 0,0.45942 -12.03943,40.06704 -12.92721,42.52827 -1.01423,2.81178 -2.58471,3.95464 -23.46639,17.07686 -4.75801,2.98998 -9.44345,5.9629 -10.41207,6.60648 -1.75453,1.16575 -1.75932,1.16567 -1.2755,-0.0215 z m -209.80622,-0.14429 c -2.87121,-0.10937 -5.22039,-0.25723 -5.22039,-0.32859 0,-0.73614 7.79601,-22.77388 8.19899,-23.17685 0.60673,-0.60673 14.7939,-0.613 32.49692,-0.0144 l 11.76003,0.39768 -11.46172,11.79285 -11.46171,11.79285 -9.54586,-0.13237 c -5.25023,-0.0728 -11.89504,-0.22184 -14.76626,-0.33121 z m 263.7044,-0.003 c -8.12144,-0.0938 -14.76626,-0.40849 -14.76626,-0.69939 0,-0.2909 1.95734,-3.0381 4.34964,-6.10489 2.3923,-3.0668 5.87735,-7.64712 7.74455,-10.17851 5.27057,-7.14535 3.35219,-6.66772 26.25356,-6.53646 10.85394,0.0622 19.84468,0.22336 19.97943,0.35811 0.13476,0.13475 -3.57892,5.5017 -8.25261,11.92656 l -8.49762,11.68156 -6.02222,-0.13824 c -3.31222,-0.076 -12.66704,-0.21497 -20.78847,-0.30874 z M 175.1987,228.99191 c 1.40326,-0.12603 3.55108,-0.12426 4.77293,0.004 1.22185,0.1282 0.0737,0.23132 -2.55139,0.22915 -2.62511,-0.002 -3.62481,-0.10706 -2.22154,-0.23309 z m 29.52809,0.0242 c 0.58049,-0.15127 1.38592,-0.14132 1.78985,0.0221 0.40393,0.16343 -0.071,0.28719 -1.05544,0.27504 -0.98441,-0.0122 -1.3149,-0.14588 -0.73441,-0.29714 z M 218.43761,228.84 c -0.73832,-0.31089 -1.34239,-0.69587 -1.34239,-0.85552 0,-0.15964 -1.61086,-5.37213 -3.5797,-11.58331 -1.96883,-6.21117 -3.57969,-11.67594 -3.57969,-12.14391 0,-1.10268 20.93948,-18.56932 21.52289,-17.9533 0.63514,0.67064 13.82671,42.03315 13.48897,42.29504 -0.58077,0.45034 -25.47548,0.67666 -26.51008,0.241 z M 406.677,228.41095 c 0.74214,-0.14271 1.81605,-0.13729 2.38646,0.012 0.57042,0.14932 -0.0368,0.26608 -1.34934,0.25946 -1.31256,-0.007 -1.77926,-0.1288 -1.03712,-0.2715 z M 124.87517,183.34092 c 0.74599,-2.37901 3.17584,-9.82926 5.39968,-16.5561 10.39673,-31.4489 14.32324,-42.64982 15.28984,-43.61641 0.93134,-0.93135 2.50056,-1.05388 14.168,-1.10626 7.21636,-0.0324 13.26793,0.17939 13.44793,0.47063 0.18,0.29125 -1.12036,4.93044 -2.88969,10.30931 -1.76934,5.37887 -4.86603,14.97646 -6.88154,21.32798 -4.02058,12.67012 -4.21623,12.98599 -10.10716,16.3173 -1.82949,1.03458 -7.08502,4.20831 -11.67897,7.05275 -8.16599,5.05614 -17.05527,10.12627 -17.75404,10.12627 -0.19271,0 0.25997,-1.94647 1.00595,-4.32547 z m 255.24988,-11.33571 c 0.15469,-0.41018 1.00066,-3.29631 1.87992,-6.41363 0.87927,-3.11732 3.44604,-11.30588 5.70394,-18.19679 2.2579,-6.89092 4.95685,-15.29736 5.99766,-18.68098 1.57511,-5.12059 2.13929,-6.24591 3.36503,-6.71193 0.80996,-0.30795 6.85565,-0.5599 13.43488,-0.5599 h 11.96223 l -0.42821,3.42725 c -0.41465,3.31873 -6.3154,23.65835 -7.51245,25.89506 -0.32529,0.60781 -0.84751,1.10512 -1.16047,1.10512 -0.31297,0 -3.45813,1.96077 -6.98925,4.35727 -3.53112,2.3965 -9.50771,6.19641 -13.28131,8.44424 -3.7736,2.24783 -8.13697,4.98541 -9.69639,6.08351 -3.06715,2.1598 -3.71114,2.40571 -3.27558,1.25078 z M 198.0587,167.82244 c -0.92319,-2.43274 -7.6917,-23.86938 -10.16103,-32.18114 -1.33558,-4.49559 -2.97669,-9.1032 -3.64691,-10.23914 -0.67023,-1.13595 -1.00419,-2.19786 -0.74214,-2.35981 0.77123,-0.47665 26.07732,-0.6938 26.82743,-0.23021 1.07184,0.66244 8.04655,22.41121 8.36184,26.07419 l 0.28244,3.28139 -10.20733,8.49532 c -9.56558,7.96121 -10.2392,8.41133 -10.7143,7.1594 z m 35.90229,-46.79391 c 0.58048,-0.15127 1.38592,-0.14132 1.78984,0.0221 0.40393,0.16343 -0.071,0.2872 -1.05543,0.27504 -0.98442,-0.0122 -1.3149,-0.14587 -0.73441,-0.29714 z m 23.54104,-7.70945 c -0.89678,-0.27343 -0.44931,-1.20199 2.93633,-6.09317 6.71707,-9.704053 24.11182,-31.286364 31.93952,-39.628553 l 2.65916,-2.833927 6.81939,0.0016 c 11.41719,0.0026 30.98235,0.758808 30.98235,1.197454 0,0.227156 -5.52128,7.232072 -12.26951,15.566481 -6.74824,8.334408 -14.37654,17.838243 -16.9518,21.119625 -2.57525,3.28139 -5.71894,6.96832 -6.98596,8.19317 l -2.30368,2.227 -17.88389,0.28647 c -9.83614,0.15756 -18.36,0.1413 -18.94191,-0.0361 z m 83.09276,-0.6221 c 0,-0.15412 2.23869,-2.88077 4.97487,-6.05924 8.63945,-10.03596 27.80613,-34.290253 29.60536,-37.46382 1.49254,-2.632605 2.03784,-3.098477 4.00779,-3.423978 1.25411,-0.20722 10.94478,-0.379718 21.53482,-0.38333 l 19.25463,-0.0066 -1.05783,1.636336 c -0.58181,0.899985 -4.80621,6.202412 -9.38755,11.783172 -4.58134,5.580759 -12.00194,14.71095 -16.49022,20.289312 -4.48828,5.578368 -8.84077,10.774028 -9.67222,11.545928 -1.38258,1.28356 -2.13991,1.42312 -8.86597,1.63383 -14.99503,0.46974 -33.90368,0.7198 -33.90368,0.44836 z m -228.20345,-1.50229 c -1.59836,-1.25726 -1.63898,-1.43061 -1.29324,-5.5187 0.30959,-3.66059 5.51982,-25.738915 8.40214,-35.604014 1.49356,-5.111882 0.86915,-4.981036 24.7623,-5.188977 l 20.53777,-0.178738 -3.98936,4.355052 c -5.31961,5.807235 -16.1034,18.630162 -26.80012,31.867837 -9.6075,11.8897 -9.15221,11.56558 -16.24634,11.56558 -2.91977,0 -4.07898,-0.28004 -5.37315,-1.29804 z m 59.36104,0.30057 c 0,-0.61202 0.87256,-2.3547 1.93901,-3.87263 2.40098,-3.41742 15.22103,-18.979433 26.58354,-32.269261 l 8.54407,-9.993323 17.11451,0.03438 c 9.41299,0.01891 18.13207,0.220269 19.37574,0.447462 l 2.26122,0.41308 -3.75276,4.578091 c -2.06402,2.51795 -8.33515,10.035315 -13.93584,16.705256 -5.60069,6.66994 -12.25448,14.719545 -14.7862,17.887995 -2.53171,3.16846 -5.06397,5.96926 -5.62725,6.22401 -0.56327,0.25475 -9.27981,0.57445 -19.37009,0.71044 -17.59434,0.23713 -18.34595,0.20167 -18.34595,-0.8655 z m 254.77014,-0.59776 c 0.8121,-0.91271 3.11231,-3.41057 5.11157,-5.55082 7.42459,-7.948158 14.57243,-16.109673 23.08576,-26.359684 4.81298,-5.794806 9.48935,-11.116897 10.39193,-11.826869 1.52768,-1.20167 2.18713,-1.277534 9.54451,-1.098007 7.00542,0.170938 8.04124,0.330848 9.11624,1.407354 1.31385,1.3157 4.16703,10.734998 4.17907,13.796483 0.009,2.400033 -2.86075,5.981985 -21.94426,27.386153 l -3.15825,3.54231 -18.90156,0.18127 -18.90156,0.18127 z M 115.07384,60.958477 c 0,-0.123891 0.46983,-0.593726 1.04408,-1.044079 0.94626,-0.742113 0.96737,-0.721011 0.22525,0.225256 -0.7794,0.993812 -1.26933,1.309858 -1.26933,0.818823 z m 174.95772,-4.389595 c 1.55866,-0.122902 4.10919,-0.122902 5.66785,0 1.55866,0.122902 0.2834,0.223458 -2.83392,0.223458 -3.11732,0 -4.39259,-0.100556 -2.83393,-0.223458 z m 32.21728,0.02727 c 0.57424,-0.150065 1.51391,-0.150065 2.08816,0 0.57424,0.150066 0.1044,0.272847 -1.04408,0.272847 -1.14849,0 -1.61832,-0.122781 -1.04408,-0.272847 z m 4.17631,0 c 0.57425,-0.150065 1.51392,-0.150065 2.08816,0 0.57424,0.150066 0.10441,0.272847 -1.04408,0.272847 -1.14848,0 -1.61832,-0.122781 -1.04408,-0.272847 z m 22.33463,-0.03508 c 5.63923,-0.09797 15.03594,-0.09814 20.88157,-3.71e-4 5.84563,0.09776 1.23172,0.17792 -10.25315,0.178124 -11.48486,2.04e-4 -16.26765,-0.07979 -10.62842,-0.177753 z m 73.14879,0.0034 c 2.22858,-0.115104 5.71879,-0.11425 7.75601,0.0019 2.03722,0.116148 0.21383,0.210324 -4.05197,0.20928 -4.26581,-10e-4 -5.93263,-0.09607 -3.70404,-0.211177 z"
         id="path5" /><path
         style="fill:#2a2f31"
         d="m 73.609007,338.9857 c -2.367808,-1.08462 -4.378728,-3.3303 -5.036778,-5.62478 -0.659029,-2.29791 1.762778,-10.37919 15.769926,-52.62239 5.38587,-16.24288 11.128771,-33.69391 12.762002,-38.78006 3.512603,-10.93884 32.667073,-97.89204 37.007213,-110.37402 1.65442,-4.75801 3.01462,-9.25501 3.02266,-9.99332 l 0.0146,-1.34239 h -12.93719 c -14.82316,0 -16.56824,-0.42927 -19.61444,-4.82493 -2.99358,-4.31974 -2.80975,-6.02602 3.23754,-30.050652 3.18452,-12.651425 5.85403,-22.060296 6.50723,-22.935192 0.60917,-0.81591 2.12185,-2.304445 3.36153,-3.307856 l 2.25396,-1.824384 89.88465,-0.306944 c 49.43656,-0.168819 89.97338,-0.370177 90.08182,-0.447462 l 8.15546,-0.438826 8.05432,0.358926 c 4.42988,0.197409 42.65684,0.412556 84.94882,0.478105 43.71068,0.06775 78.14278,0.355914 79.78707,0.667746 6.83162,1.29559 10.29174,4.608106 12.65653,12.116618 3.2164,10.212503 9.95509,34.312631 10.30208,36.844171 0.55781,4.06967 -0.66795,7.61591 -3.61065,10.44595 -3.5101,3.37571 -5.81006,3.82135 -19.72215,3.82135 -10.87814,0 -11.68506,0.074 -11.38,1.04408 0.18059,0.57424 1.00982,3.32614 1.84273,6.11532 1.80593,6.04751 21.15161,63.89446 29.13074,87.10597 3.10201,9.02383 7.3853,21.64226 9.51842,28.04097 2.13313,6.39871 5.63453,16.73509 7.7809,22.96973 10.70218,31.08698 20.87797,63.33153 20.93072,66.32429 0.0643,3.64507 -1.52117,5.80001 -4.97258,6.75878 -3.61621,1.00456 -27.93087,0.75775 -31.56127,-0.32036 -5.96723,-1.77208 -5.88818,-1.61468 -16.18547,-32.22617 -5.07137,-15.07604 -10.06217,-29.80416 -11.09066,-32.72915 l -1.86999,-5.31816 -38.42848,0.11101 c -42.69159,0.12334 -48.0405,0.32582 -48.8559,1.8494 -1.02044,1.90671 -16.67313,49.87094 -18.21263,55.8086 -1.81061,6.98329 -3.7237,10.09486 -7.39992,12.03568 -2.53349,1.33752 -3.13234,1.38807 -16.40695,1.38486 -15.02463,-0.004 -17.52943,-0.37543 -20.1441,-2.9901 -2.93035,-2.93035 -2.54687,-4.95587 5.25208,-27.74165 6.79501,-19.8526 11.81793,-35.60061 12.23893,-38.37185 l 0.21131,-1.39097 -36.93873,0.0737 c -20.31629,0.0406 -37.14277,0.19985 -37.39217,0.35399 -0.2494,0.15414 1.01431,4.63981 2.80826,9.96817 3.16593,9.40343 9.79369,32.27887 13.36257,46.12037 1.54792,6.00342 1.66825,7.06301 1.02146,8.99401 -0.40324,1.20388 -1.49206,2.75147 -2.41959,3.43909 -1.60714,1.19144 -2.39251,1.25022 -16.70526,1.25022 -14.51084,0 -15.10539,-0.0462 -17.57786,-1.36645 -3.42451,-1.82861 -4.44303,-3.67308 -7.6464,-13.84726 -1.49808,-4.75802 -4.7329,-14.96016 -7.18848,-22.67142 -10.01088,-31.43714 -9.94064,-31.24188 -11.54198,-32.08444 -1.20979,-0.63655 -9.15524,-0.71826 -42.06145,-0.43256 -22.31345,0.19373 -41.54166,0.49234 -42.72935,0.66357 -1.47197,0.21222 -2.35316,0.73649 -2.76792,1.64679 -0.33466,0.7345 -5.09134,14.82907 -10.5704,31.32125 -10.76999,32.41807 -10.89633,32.69695 -16.06641,35.4631 -2.29243,1.22652 -3.3252,1.31632 -16.761743,1.45741 -11.134547,0.11691 -14.716821,-0.032 -16.10864,-0.66952 z m 29.756193,-7.46152 c 0.77861,-0.3059 1.88977,-2.69592 3.65574,-7.86323 1.39542,-4.08307 3.62445,-10.24277 4.9534,-13.68823 1.32895,-3.44545 3.79318,-10.82858 5.47606,-16.40694 1.68289,-5.57837 5.63077,-17.65985 8.77308,-26.84774 14.41223,-42.14034 18.61536,-54.59039 18.4297,-54.59039 -1.17448,0 -32.26231,18.85655 -35.85598,21.74872 -1.27621,1.02708 -3.92659,8.6123 -16.687013,47.75708 -8.343408,25.59484 -15.452961,47.16026 -15.799007,47.92317 -0.346046,0.7629 -0.475681,1.63545 -0.288077,1.939 0.402502,0.65126 25.689907,0.67767 27.342097,0.0286 z m 173.66641,-0.52073 c -1.09125,-2.53459 -4.37541,-13.21768 -13.61819,-44.29876 -1.80524,-6.07057 -3.58392,-12.19674 -3.95261,-13.6137 l -0.67035,-2.5763 -13.34137,0.18983 c -7.33775,0.10441 -13.53122,0.38021 -13.76325,0.61289 -0.79834,0.80056 16.61474,53.88071 18.87596,57.53944 1.08317,1.75261 1.50269,1.93832 5.185,2.29522 2.20357,0.21358 4.27496,0.48124 4.6031,0.59479 0.32814,0.11356 4.3169,0.22766 8.86392,0.25357 7.65681,0.0436 8.23411,-0.03 7.81779,-0.99698 z m 79.88529,-0.44786 c 0.49243,-0.49243 1.32821,-2.43889 1.8573,-4.32547 0.89472,-3.19036 4.71011,-15.25433 11.65133,-36.84066 1.58272,-4.92208 2.79212,-9.03616 2.68755,-9.14239 -0.46736,-0.47478 -15.43645,8.78038 -29.53521,18.26116 l -5.07124,3.41017 -4.61234,13.42387 c -2.53678,7.38313 -4.61748,14.02794 -4.62377,14.76625 l -0.0114,1.34239 h 13.38125 c 11.10158,0 13.53378,-0.15253 14.27657,-0.89532 z m 173.99848,0.51752 c 0,-0.20779 -2.25559,-6.58412 -5.01243,-14.16964 -4.97214,-13.68098 -8.27564,-23.77524 -13.9833,-42.72772 -1.63055,-5.4143 -3.62357,-11.58927 -4.42893,-13.72218 -0.80536,-2.1329 -2.6872,-7.09973 -4.18186,-11.0374 -1.49466,-3.93767 -4.47789,-12.79742 -6.6294,-19.68834 -2.15151,-6.89091 -6.62478,-20.58326 -9.94059,-30.42743 -3.31581,-9.84417 -8.17688,-24.59235 -10.80236,-32.77374 -2.62549,-8.1814 -6.51509,-19.72592 -8.64356,-25.6545 -2.12847,-5.92859 -4.56029,-12.72571 -5.40404,-15.10471 l -1.53408,-4.32547 h -10.87422 c -5.98081,0 -12.15074,0.17497 -13.71094,0.38881 l -2.83674,0.38882 0.35601,2.59736 c 0.35493,2.5895 21.65066,66.47375 47.50141,142.49769 6.52023,19.17519 17.11569,51.11691 19.83681,59.8012 l 1.35233,4.31589 14.46795,0.01 c 7.95737,0.005 14.46794,-0.16043 14.46794,-0.36822 z m -266.69099,-81.79168 12.52212,-11.79758 -2.23214,-0.37546 c -4.57906,-0.77022 -32.69459,-1.23297 -35.12645,-0.57814 -1.93772,0.52177 -4.5095,2.77529 -13.95775,12.23047 -6.37028,6.37497 -11.69416,11.9263 -11.83082,12.3363 -0.19704,0.59111 3.72138,0.66641 18.92722,0.36372 l 19.1757,-0.38172 z m 75.88324,11.98026 3.98746,-0.37663 0.72573,-3.04967 c 0.39915,-1.67732 2.01361,-7.06874 3.58767,-11.98092 1.57407,-4.91219 2.71972,-9.07359 2.54589,-9.24756 -0.49081,-0.4912 -24.71409,-0.37241 -27.07864,0.13281 -1.66257,0.35522 -4.56218,2.86043 -13.87133,11.98455 -6.47316,6.3445 -11.76938,11.70817 -11.76938,11.91927 0,0.2111 5.97362,0.46148 13.27472,0.5564 7.30109,0.0949 15.82524,0.23238 18.94256,0.30548 3.11732,0.0731 7.46221,-0.0366 9.65532,-0.24373 z m 23.75519,-7.09644 c 20.88168,-13.12222 22.45216,-14.26508 23.46639,-17.07686 0.88778,-2.46123 12.92721,-42.06885 12.92721,-42.52827 0,-0.71439 -12.9775,6.92288 -17.93895,10.55708 -3.248,2.37913 -7.588,5.31963 -9.64443,6.53446 -6.38938,3.7745 -6.2545,3.60763 -8.23617,10.19028 -1.00934,3.35282 -3.7358,12.00255 -6.05878,19.2216 -2.32298,7.21906 -4.55966,14.33371 -4.9704,15.81033 -0.41074,1.47663 -0.96534,3.221 -1.23244,3.87639 -0.48382,1.18714 -0.47903,1.18722 1.2755,0.0215 0.96862,-0.64358 5.65406,-3.6165 10.41207,-6.60648 z m -185.71996,-4.88855 11.46172,-11.79285 -11.76003,-0.39768 c -17.70302,-0.59864 -31.89019,-0.59237 -32.49692,0.0144 -0.40298,0.40297 -8.19899,22.44071 -8.19899,23.17685 0,0.20145 9.46495,0.51391 19.98665,0.6598 l 9.54586,0.13237 z m 263.23888,0.0919 c 4.67369,-6.42486 8.38737,-11.79181 8.25261,-11.92656 -0.13475,-0.13475 -9.12549,-0.2959 -19.97943,-0.35811 -22.90137,-0.13126 -20.98299,-0.60889 -26.25356,6.53646 -1.8672,2.53139 -5.35225,7.11171 -7.74455,10.17851 -2.3923,3.06679 -4.34964,5.81399 -4.34964,6.10489 0,0.2909 6.64482,0.60563 14.76626,0.69939 8.12143,0.0938 17.47625,0.2327 20.78847,0.30874 l 6.02222,0.13824 z m -232.3444,-20.52995 c 0.33715,-0.54552 -14.90594,-47.21083 -20.9518,-64.14202 -2.10912,-5.9065 -4.7492,-14.04705 -5.86685,-18.0901 -2.02789,-7.33587 -3.48648,-10.57734 -4.48255,-9.96174 -0.28964,0.17901 -1.36949,3.07369 -2.39968,6.43264 -2.24751,7.32801 -13.33899,41.55729 -21.53097,66.44646 -3.25477,9.88875 -5.91776,18.27333 -5.91776,18.6324 0,0.44646 4.00803,0.71118 12.6781,0.83734 26.65227,0.38781 48.17858,0.31898 48.47151,-0.15498 z m 35.91035,-0.23968 c 0.33774,-0.26189 -12.85383,-41.6244 -13.48897,-42.29504 -0.58341,-0.61602 -21.52289,16.85062 -21.52289,17.9533 0,0.46797 1.61086,5.93274 3.57969,12.14391 1.96884,6.21118 3.5797,11.42367 3.5797,11.58331 0,1.10059 4.0364,1.38188 15.21372,1.06022 6.89091,-0.1983 12.57835,-0.39887 12.63875,-0.4457 z m 109.67386,-0.51186 c 0.21175,-0.73831 3.29798,-10.33638 6.85828,-21.32903 3.56031,-10.99266 7.41934,-23.36239 8.57563,-27.4883 1.15629,-4.12591 4.97038,-16.61011 8.47575,-27.74266 6.99315,-22.20921 9.19626,-29.45521 9.19626,-30.24628 0,-0.8 -168.03135,-0.29239 -168.83354,0.51003 -0.46501,0.46514 0.34588,3.40251 2.88226,10.44078 1.94111,5.38646 5.46771,15.8343 7.83688,23.21743 2.36917,7.38312 5.73821,17.7195 7.48675,22.96972 3.15329,9.46817 8.22593,25.47383 11.34504,35.79698 0.89232,2.95325 2.41516,7.44869 3.38408,9.98987 l 1.76169,4.62032 49.02078,0.15612 c 26.96143,0.0859 49.60676,0.22166 50.32296,0.30177 0.90831,0.10158 1.41864,-0.2604 1.68718,-1.19675 z m 104.26899,0.29831 c 0.12988,-0.24611 -4.66746,-14.94524 -10.66076,-32.66474 -5.99331,-17.71951 -12.68881,-37.72107 -14.8789,-44.44792 -4.31697,-13.25956 -5.35119,-15.77449 -5.88831,-14.31879 -0.58213,1.5777 -9.00702,27.76521 -14.97131,46.53607 -3.18004,10.00824 -7.46331,23.43211 -9.51837,29.83082 -5.31754,16.55684 -5.22733,14.81779 -0.78166,15.07018 7.59398,0.43112 56.47138,0.42627 56.69931,-0.006 z M 128.74512,185.1891 c 2.48903,-1.36251 8.2842,-4.80455 12.87814,-7.64898 4.59395,-2.84444 9.84948,-6.01817 11.67897,-7.05275 5.89093,-3.33131 6.08658,-3.64718 10.10716,-16.3173 2.01551,-6.35152 5.1122,-15.94911 6.88154,-21.32798 1.76933,-5.37887 3.06969,-10.01806 2.88969,-10.30931 -0.18,-0.29124 -6.23157,-0.50303 -13.44793,-0.47063 -11.66744,0.0524 -13.23666,0.17491 -14.168,1.10626 -0.9666,0.96659 -4.89311,12.16751 -15.28984,43.61641 -5.61178,16.97495 -6.81017,20.88157 -6.40563,20.88157 0.19271,0 2.38686,-1.11478 4.8759,-2.47729 z m 254.65551,-14.43467 c 1.55942,-1.0981 5.92279,-3.83568 9.69639,-6.08351 3.7736,-2.24783 9.75019,-6.04774 13.28131,-8.44424 3.53112,-2.3965 6.67628,-4.35727 6.98925,-4.35727 0.31296,0 0.83518,-0.49731 1.16047,-1.10512 1.19705,-2.23671 7.0978,-22.57633 7.51245,-25.89506 l 0.42821,-3.42725 h -11.96223 c -6.57923,0 -12.62492,0.25195 -13.43488,0.5599 -1.22574,0.46602 -1.78992,1.59134 -3.36503,6.71193 -1.04081,3.38362 -3.73976,11.79006 -5.99766,18.68098 -2.2579,6.89091 -4.82467,15.07947 -5.70394,18.19679 -0.87926,3.11732 -1.72523,6.00345 -1.87992,6.41363 -0.43556,1.15493 0.20843,0.90902 3.27558,-1.25078 z m -164.70274,-21.8681 c -0.31529,-3.66298 -7.29,-25.41175 -8.36184,-26.07419 -0.75011,-0.46359 -26.0562,-0.24644 -26.82743,0.23021 -0.26205,0.16195 0.0719,1.22386 0.74214,2.35981 0.67022,1.13594 2.31133,5.74355 3.64691,10.23914 2.46933,8.31176 9.23784,29.7484 10.16103,32.18114 0.4751,1.25193 1.14872,0.80181 10.7143,-7.1594 l 10.20733,-8.49532 z m 77.93362,-38.0446 c 1.26702,-1.22485 4.41071,-4.91178 6.98596,-8.19317 2.57526,-3.281385 10.20356,-12.78522 16.9518,-21.119628 6.74823,-8.334409 12.26951,-15.339325 12.26951,-15.566481 0,-0.438646 -19.56516,-1.194831 -30.98235,-1.197454 l -6.81939,-0.0016 -2.65916,2.833927 c -7.8277,8.342189 -25.22245,29.9245 -31.93952,39.628556 -3.38564,4.89118 -3.83311,5.81974 -2.93633,6.09317 0.58191,0.17742 9.10577,0.19368 18.94191,0.0361 l 17.88389,-0.28647 z m 77.86696,1.40689 c 6.72606,-0.21071 7.48339,-0.35027 8.86597,-1.63383 0.83145,-0.7719 5.18394,-5.96756 9.67222,-11.545924 4.48828,-5.578362 11.90888,-14.708553 16.49022,-20.289312 4.58134,-5.58076 8.80574,-10.883187 9.38755,-11.783172 l 1.05783,-1.636336 -19.25463,0.0066 c -10.59004,0.0036 -20.28071,0.17611 -21.53482,0.38333 -1.96995,0.325501 -2.51525,0.791373 -4.00779,3.423978 -1.79923,3.173567 -20.96591,27.42786 -29.60536,37.463816 -2.73618,3.17847 -4.97487,5.90512 -4.97487,6.05924 0,0.27144 18.90865,0.0214 33.90368,-0.44836 z M 123.38263,112.1137 c 1.56928,-0.31386 3.39681,-2.2374 10.6282,-11.18655 10.69672,-13.237675 21.48051,-26.060602 26.80012,-31.867837 l 3.98936,-4.355052 -20.53777,0.178738 c -23.89315,0.207941 -23.26874,0.07709 -24.7623,5.188977 -2.88232,9.865099 -8.09255,31.943424 -8.40214,35.604014 -0.34574,4.08809 -0.30512,4.26144 1.29324,5.5187 1.29417,1.018 2.45338,1.29804 5.37315,1.29804 2.04764,0 4.5758,-0.17056 5.61814,-0.37903 z m 86.08579,-0.46338 c 0.56328,-0.25475 3.09554,-3.05555 5.62725,-6.22401 2.53172,-3.16845 9.18551,-11.218052 14.7862,-17.887992 5.60069,-6.669941 11.87182,-14.187306 13.93584,-16.705256 l 3.75276,-4.578091 -2.26122,-0.41308 c -1.24367,-0.227193 -9.96275,-0.428551 -19.37574,-0.447462 l -17.11451,-0.03438 -8.54407,9.993323 c -11.36251,13.289828 -24.18256,28.851838 -26.58354,32.269258 -3.6931,5.25654 -4.51193,5.02007 16.40694,4.73813 10.09028,-0.13599 18.80682,-0.45569 19.37009,-0.71044 z m 256.53892,-2.99821 c 19.08351,-21.404168 21.95369,-24.98612 21.94426,-27.386153 -0.012,-3.061485 -2.86522,-12.480783 -4.17907,-13.796483 -1.075,-1.076506 -2.11082,-1.236416 -9.11624,-1.407354 -7.35738,-0.179527 -8.01683,-0.103663 -9.54451,1.098007 -0.90258,0.709972 -5.57895,6.032063 -10.39193,11.826869 -8.51333,10.250011 -15.66117,18.411526 -23.08576,26.359684 -1.99926,2.14025 -4.29947,4.63811 -5.11157,5.55082 l -1.47655,1.65946 18.90156,-0.18127 18.90156,-0.18127 z"
         id="path4" /></g></g></svg>
